<?xml version="1.0" encoding="utf-8" standalone="no"?>
<!DOCTYPE svg PUBLIC "-//W3C//DTD SVG 1.1//EN"
  "http://www.w3.org/Graphics/SVG/1.1/DTD/svg11.dtd">
<svg xmlns:xlink="http://www.w3.org/1999/xlink" width="923.93625pt" height="538pt" viewBox="0 0 923.93625 538" xmlns="http://www.w3.org/2000/svg" version="1.1">
 <metadata>
  <rdf:RDF xmlns:dc="http://purl.org/dc/elements/1.1/" xmlns:cc="http://creativecommons.org/ns#" xmlns:rdf="http://www.w3.org/1999/02/22-rdf-syntax-ns#">
   <cc:Work>
    <dc:type rdf:resource="http://purl.org/dc/dcmitype/StillImage"/>
    <dc:date>2026-10-02T23:47:42.223320</dc:date>
    <dc:format>image/svg+xml</dc:format>
    <dc:creator>
     <cc:Agent>
      <dc:title>Matplotlib v3.10.8, https://matplotlib.org/</dc:title>
     </cc:Agent>
    </dc:creator>
   </cc:Work>
  </rdf:RDF>
 </metadata>
 <defs>
  <style type="text/css">*{stroke-linejoin: round; stroke-linecap: butt}</style>
 </defs>
 <g id="figure_1">
  <g id="patch_1">
   <path d="M 0 538 
L 923.93625 538 
L 923.93625 0 
L 0 0 
z
" style="fill: #ffffff"/>
  </g>
  <g id="axes_1">
   <g id="patch_2">
    <path d="M 47.64875 277.065682 
L 916.73625 277.065682 
L 916.73625 76.32 
L 47.64875 76.32 
z
" style="fill: #ffffff"/>
   </g>
   <g id="matplotlib.axis_1">
    <g id="xtick_1">
     <g id="line2d_1">
      <path d="M 87.152727 277.065682 
L 87.152727 76.32 
" clip-path="url(#p53d4ace78c)" style="fill: none; stroke: #b0b0b0; stroke-opacity: 0.18; stroke-width: 0.8; stroke-linecap: square"/>
     </g>
     <g id="line2d_2">
      <defs>
       <path id="m651388876b" d="M 0 0 
L 0 3.5 
" style="stroke: #000000; stroke-width: 0.8"/>
      </defs>
      <g>
       <use xlink:href="#m651388876b" x="87.152727" y="277.065682" style="stroke: #000000; stroke-width: 0.8"/>
      </g>
     </g>
    </g>
    <g id="xtick_2">
     <g id="line2d_3">
      <path d="M 185.91267 277.065682 
L 185.91267 76.32 
" clip-path="url(#p53d4ace78c)" style="fill: none; stroke: #b0b0b0; stroke-opacity: 0.18; stroke-width: 0.8; stroke-linecap: square"/>
     </g>
     <g id="line2d_4">
      <g>
       <use xlink:href="#m651388876b" x="185.91267" y="277.065682" style="stroke: #000000; stroke-width: 0.8"/>
      </g>
     </g>
    </g>
    <g id="xtick_3">
     <g id="line2d_5">
      <path d="M 284.672614 277.065682 
L 284.672614 76.32 
" clip-path="url(#p53d4ace78c)" style="fill: none; stroke: #b0b0b0; stroke-opacity: 0.18; stroke-width: 0.8; stroke-linecap: square"/>
     </g>
     <g id="line2d_6">
      <g>
       <use xlink:href="#m651388876b" x="284.672614" y="277.065682" style="stroke: #000000; stroke-width: 0.8"/>
      </g>
     </g>
    </g>
    <g id="xtick_4">
     <g id="line2d_7">
      <path d="M 383.432557 277.065682 
L 383.432557 76.32 
" clip-path="url(#p53d4ace78c)" style="fill: none; stroke: #b0b0b0; stroke-opacity: 0.18; stroke-width: 0.8; stroke-linecap: square"/>
     </g>
     <g id="line2d_8">
      <g>
       <use xlink:href="#m651388876b" x="383.432557" y="277.065682" style="stroke: #000000; stroke-width: 0.8"/>
      </g>
     </g>
    </g>
    <g id="xtick_5">
     <g id="line2d_9">
      <path d="M 482.1925 277.065682 
L 482.1925 76.32 
" clip-path="url(#p53d4ace78c)" style="fill: none; stroke: #b0b0b0; stroke-opacity: 0.18; stroke-width: 0.8; stroke-linecap: square"/>
     </g>
     <g id="line2d_10">
      <g>
       <use xlink:href="#m651388876b" x="482.1925" y="277.065682" style="stroke: #000000; stroke-width: 0.8"/>
      </g>
     </g>
    </g>
    <g id="xtick_6">
     <g id="line2d_11">
      <path d="M 580.952443 277.065682 
L 580.952443 76.32 
" clip-path="url(#p53d4ace78c)" style="fill: none; stroke: #b0b0b0; stroke-opacity: 0.18; stroke-width: 0.8; stroke-linecap: square"/>
     </g>
     <g id="line2d_12">
      <g>
       <use xlink:href="#m651388876b" x="580.952443" y="277.065682" style="stroke: #000000; stroke-width: 0.8"/>
      </g>
     </g>
    </g>
    <g id="xtick_7">
     <g id="line2d_13">
      <path d="M 679.712386 277.065682 
L 679.712386 76.32 
" clip-path="url(#p53d4ace78c)" style="fill: none; stroke: #b0b0b0; stroke-opacity: 0.18; stroke-width: 0.8; stroke-linecap: square"/>
     </g>
     <g id="line2d_14">
      <g>
       <use xlink:href="#m651388876b" x="679.712386" y="277.065682" style="stroke: #000000; stroke-width: 0.8"/>
      </g>
     </g>
    </g>
    <g id="xtick_8">
     <g id="line2d_15">
      <path d="M 778.47233 277.065682 
L 778.47233 76.32 
" clip-path="url(#p53d4ace78c)" style="fill: none; stroke: #b0b0b0; stroke-opacity: 0.18; stroke-width: 0.8; stroke-linecap: square"/>
     </g>
     <g id="line2d_16">
      <g>
       <use xlink:href="#m651388876b" x="778.47233" y="277.065682" style="stroke: #000000; stroke-width: 0.8"/>
      </g>
     </g>
    </g>
    <g id="xtick_9">
     <g id="line2d_17">
      <path d="M 877.232273 277.065682 
L 877.232273 76.32 
" clip-path="url(#p53d4ace78c)" style="fill: none; stroke: #b0b0b0; stroke-opacity: 0.18; stroke-width: 0.8; stroke-linecap: square"/>
     </g>
     <g id="line2d_18">
      <g>
       <use xlink:href="#m651388876b" x="877.232273" y="277.065682" style="stroke: #000000; stroke-width: 0.8"/>
      </g>
     </g>
    </g>
   </g>
   <g id="matplotlib.axis_2">
    <g id="ytick_1">
     <g id="line2d_19">
      <path d="M 47.64875 267.940878 
L 916.73625 267.940878 
" clip-path="url(#p53d4ace78c)" style="fill: none; stroke: #b0b0b0; stroke-opacity: 0.18; stroke-width: 0.8; stroke-linecap: square"/>
     </g>
     <g id="line2d_20">
      <defs>
       <path id="m61ccf2fc05" d="M 0 0 
L -3.5 0 
" style="stroke: #000000; stroke-width: 0.8"/>
      </defs>
      <g>
       <use xlink:href="#m61ccf2fc05" x="47.64875" y="267.940878" style="stroke: #000000; stroke-width: 0.8"/>
      </g>
     </g>
     <g id="text_1">
      <!-- 0.7 -->
      <g transform="translate(23.993125 272.716503) scale(0.12 -0.12)">
       <defs>
        <path id="NotoSansCJKjp-Regular-30" d="M 1779 -83 
C 2669 -83 3238 723 3238 2362 
C 3238 3987 2669 4774 1779 4774 
C 883 4774 320 3987 320 2362 
C 320 723 883 -83 1779 -83 
z
M 1779 390 
C 1248 390 883 986 883 2362 
C 883 3731 1248 4314 1779 4314 
C 2310 4314 2675 3731 2675 2362 
C 2675 986 2310 390 1779 390 
z
" transform="scale(0.015625)"/>
        <path id="NotoSansCJKjp-Regular-2e" d="M 890 -83 
C 1120 -83 1312 96 1312 358 
C 1312 627 1120 806 890 806 
C 653 806 467 627 467 358 
C 467 96 653 -83 890 -83 
z
" transform="scale(0.015625)"/>
        <path id="NotoSansCJKjp-Regular-37" d="M 1267 0 
L 1875 0 
C 1952 1837 2150 2931 3251 4339 
L 3251 4691 
L 314 4691 
L 314 4192 
L 2592 4192 
C 1670 2912 1350 1779 1267 0 
z
" transform="scale(0.015625)"/>
       </defs>
       <use xlink:href="#NotoSansCJKjp-Regular-30"/>
       <use xlink:href="#NotoSansCJKjp-Regular-2e" transform="translate(55.499985 0)"/>
       <use xlink:href="#NotoSansCJKjp-Regular-37" transform="translate(83.299973 0)"/>
      </g>
     </g>
    </g>
    <g id="ytick_2">
     <g id="line2d_21">
      <path d="M 47.64875 237.391244 
L 916.73625 237.391244 
" clip-path="url(#p53d4ace78c)" style="fill: none; stroke: #b0b0b0; stroke-opacity: 0.18; stroke-width: 0.8; stroke-linecap: square"/>
     </g>
     <g id="line2d_22">
      <g>
       <use xlink:href="#m61ccf2fc05" x="47.64875" y="237.391244" style="stroke: #000000; stroke-width: 0.8"/>
      </g>
     </g>
     <g id="text_2">
      <!-- 0.8 -->
      <g transform="translate(23.993125 242.166869) scale(0.12 -0.12)">
       <defs>
        <path id="NotoSansCJKjp-Regular-38" d="M 1792 -83 
C 2669 -83 3258 448 3258 1126 
C 3258 1773 2880 2125 2470 2362 
L 2470 2394 
C 2746 2611 3091 3034 3091 3526 
C 3091 4250 2605 4762 1805 4762 
C 1075 4762 518 4282 518 3571 
C 518 3078 813 2726 1152 2490 
L 1152 2464 
C 723 2234 294 1792 294 1165 
C 294 442 922 -83 1792 -83 
z
M 2112 2547 
C 1555 2765 1050 3014 1050 3571 
C 1050 4026 1363 4326 1798 4326 
C 2298 4326 2592 3962 2592 3494 
C 2592 3149 2426 2829 2112 2547 
z
M 1798 352 
C 1235 352 813 717 813 1216 
C 813 1664 1082 2035 1459 2278 
C 2125 2010 2701 1779 2701 1146 
C 2701 678 2342 352 1798 352 
z
" transform="scale(0.015625)"/>
       </defs>
       <use xlink:href="#NotoSansCJKjp-Regular-30"/>
       <use xlink:href="#NotoSansCJKjp-Regular-2e" transform="translate(55.499985 0)"/>
       <use xlink:href="#NotoSansCJKjp-Regular-38" transform="translate(83.299973 0)"/>
      </g>
     </g>
    </g>
    <g id="ytick_3">
     <g id="line2d_23">
      <path d="M 47.64875 206.84161 
L 916.73625 206.84161 
" clip-path="url(#p53d4ace78c)" style="fill: none; stroke: #b0b0b0; stroke-opacity: 0.18; stroke-width: 0.8; stroke-linecap: square"/>
     </g>
     <g id="line2d_24">
      <g>
       <use xlink:href="#m61ccf2fc05" x="47.64875" y="206.84161" style="stroke: #000000; stroke-width: 0.8"/>
      </g>
     </g>
     <g id="text_3">
      <!-- 0.9 -->
      <g transform="translate(23.993125 211.617235) scale(0.12 -0.12)">
       <defs>
        <path id="NotoSansCJKjp-Regular-39" d="M 1504 -83 
C 2381 -83 3206 646 3206 2547 
C 3206 4038 2528 4774 1626 4774 
C 896 4774 282 4166 282 3251 
C 282 2285 794 1779 1574 1779 
C 1965 1779 2368 2003 2656 2349 
C 2611 896 2086 403 1485 403 
C 1178 403 896 538 691 762 
L 371 397 
C 634 122 992 -83 1504 -83 
z
M 2650 2842 
C 2336 2394 1984 2214 1670 2214 
C 1114 2214 832 2624 832 3251 
C 832 3898 1178 4320 1632 4320 
C 2227 4320 2586 3808 2650 2842 
z
" transform="scale(0.015625)"/>
       </defs>
       <use xlink:href="#NotoSansCJKjp-Regular-30"/>
       <use xlink:href="#NotoSansCJKjp-Regular-2e" transform="translate(55.499985 0)"/>
       <use xlink:href="#NotoSansCJKjp-Regular-39" transform="translate(83.299973 0)"/>
      </g>
     </g>
    </g>
    <g id="ytick_4">
     <g id="line2d_25">
      <path d="M 47.64875 176.291976 
L 916.73625 176.291976 
" clip-path="url(#p53d4ace78c)" style="fill: none; stroke: #b0b0b0; stroke-opacity: 0.18; stroke-width: 0.8; stroke-linecap: square"/>
     </g>
     <g id="line2d_26">
      <g>
       <use xlink:href="#m61ccf2fc05" x="47.64875" y="176.291976" style="stroke: #000000; stroke-width: 0.8"/>
      </g>
     </g>
     <g id="text_4">
      <!-- 1.0 -->
      <g transform="translate(23.993125 181.067601) scale(0.12 -0.12)">
       <defs>
        <path id="NotoSansCJKjp-Regular-31" d="M 563 0 
L 3136 0 
L 3136 486 
L 2195 486 
L 2195 4691 
L 1747 4691 
C 1491 4544 1190 4435 774 4358 
L 774 3987 
L 1613 3987 
L 1613 486 
L 563 486 
L 563 0 
z
" transform="scale(0.015625)"/>
       </defs>
       <use xlink:href="#NotoSansCJKjp-Regular-31"/>
       <use xlink:href="#NotoSansCJKjp-Regular-2e" transform="translate(55.499985 0)"/>
       <use xlink:href="#NotoSansCJKjp-Regular-30" transform="translate(83.299973 0)"/>
      </g>
     </g>
    </g>
    <g id="ytick_5">
     <g id="line2d_27">
      <path d="M 47.64875 145.742343 
L 916.73625 145.742343 
" clip-path="url(#p53d4ace78c)" style="fill: none; stroke: #b0b0b0; stroke-opacity: 0.18; stroke-width: 0.8; stroke-linecap: square"/>
     </g>
     <g id="line2d_28">
      <g>
       <use xlink:href="#m61ccf2fc05" x="47.64875" y="145.742343" style="stroke: #000000; stroke-width: 0.8"/>
      </g>
     </g>
     <g id="text_5">
      <!-- 1.1 -->
      <g transform="translate(23.993125 150.517968) scale(0.12 -0.12)">
       <use xlink:href="#NotoSansCJKjp-Regular-31"/>
       <use xlink:href="#NotoSansCJKjp-Regular-2e" transform="translate(55.499985 0)"/>
       <use xlink:href="#NotoSansCJKjp-Regular-31" transform="translate(83.299973 0)"/>
      </g>
     </g>
    </g>
    <g id="ytick_6">
     <g id="line2d_29">
      <path d="M 47.64875 115.192709 
L 916.73625 115.192709 
" clip-path="url(#p53d4ace78c)" style="fill: none; stroke: #b0b0b0; stroke-opacity: 0.18; stroke-width: 0.8; stroke-linecap: square"/>
     </g>
     <g id="line2d_30">
      <g>
       <use xlink:href="#m61ccf2fc05" x="47.64875" y="115.192709" style="stroke: #000000; stroke-width: 0.8"/>
      </g>
     </g>
     <g id="text_6">
      <!-- 1.2 -->
      <g transform="translate(23.993125 119.968334) scale(0.12 -0.12)">
       <defs>
        <path id="NotoSansCJKjp-Regular-32" d="M 282 0 
L 3232 0 
L 3232 506 
L 1933 506 
C 1696 506 1408 480 1165 461 
C 2266 1504 3008 2458 3008 3398 
C 3008 4230 2477 4774 1638 4774 
C 1043 4774 634 4506 256 4090 
L 595 3757 
C 858 4070 1184 4301 1568 4301 
C 2150 4301 2432 3910 2432 3373 
C 2432 2566 1754 1632 282 346 
L 282 0 
z
" transform="scale(0.015625)"/>
       </defs>
       <use xlink:href="#NotoSansCJKjp-Regular-31"/>
       <use xlink:href="#NotoSansCJKjp-Regular-2e" transform="translate(55.499985 0)"/>
       <use xlink:href="#NotoSansCJKjp-Regular-32" transform="translate(83.299973 0)"/>
      </g>
     </g>
    </g>
    <g id="ytick_7">
     <g id="line2d_31">
      <path d="M 47.64875 84.643075 
L 916.73625 84.643075 
" clip-path="url(#p53d4ace78c)" style="fill: none; stroke: #b0b0b0; stroke-opacity: 0.18; stroke-width: 0.8; stroke-linecap: square"/>
     </g>
     <g id="line2d_32">
      <g>
       <use xlink:href="#m61ccf2fc05" x="47.64875" y="84.643075" style="stroke: #000000; stroke-width: 0.8"/>
      </g>
     </g>
     <g id="text_7">
      <!-- 1.3 -->
      <g transform="translate(23.993125 89.4187) scale(0.12 -0.12)">
       <defs>
        <path id="NotoSansCJKjp-Regular-33" d="M 1683 -83 
C 2522 -83 3194 416 3194 1254 
C 3194 1901 2752 2310 2202 2445 
L 2202 2477 
C 2701 2650 3034 3034 3034 3603 
C 3034 4346 2458 4774 1664 4774 
C 1126 4774 710 4538 358 4218 
L 672 3846 
C 941 4115 1267 4301 1645 4301 
C 2138 4301 2438 4006 2438 3558 
C 2438 3053 2112 2662 1139 2662 
L 1139 2214 
C 2227 2214 2598 1843 2598 1274 
C 2598 736 2208 403 1645 403 
C 1114 403 762 659 486 941 
L 186 563 
C 493 224 954 -83 1683 -83 
z
" transform="scale(0.015625)"/>
       </defs>
       <use xlink:href="#NotoSansCJKjp-Regular-31"/>
       <use xlink:href="#NotoSansCJKjp-Regular-2e" transform="translate(55.499985 0)"/>
       <use xlink:href="#NotoSansCJKjp-Regular-33" transform="translate(83.299973 0)"/>
      </g>
     </g>
    </g>
    <g id="text_8">
     <!-- 位置 p [m] -->
     <g transform="translate(17.244375 204.712841) rotate(-90) scale(0.12 -0.12)">
      <defs>
       <path id="NotoSansCJKjp-Regular-4f4d" d="M 2630 3155 
C 2867 2304 3066 1190 3110 544 
L 3578 646 
C 3526 1280 3302 2381 3059 3232 
L 2630 3155 
z
M 2106 4115 
L 2106 3661 
L 6016 3661 
L 6016 4115 
L 4250 4115 
L 4250 5299 
L 3770 5299 
L 3770 4115 
L 2106 4115 
z
M 1946 243 
L 1946 -211 
L 6176 -211 
L 6176 243 
L 4634 243 
C 4928 1043 5261 2246 5485 3194 
L 4966 3283 
C 4800 2362 4461 1056 4166 243 
L 1946 243 
z
M 1773 5357 
C 1395 4390 774 3443 128 2835 
C 211 2720 352 2470 397 2355 
C 640 2598 877 2880 1107 3194 
L 1107 -493 
L 1568 -493 
L 1568 3891 
C 1818 4314 2048 4762 2227 5216 
L 1773 5357 
z
" transform="scale(0.015625)"/>
       <path id="NotoSansCJKjp-Regular-7f6e" d="M 4154 4762 
L 5235 4762 
L 5235 4186 
L 4154 4186 
L 4154 4762 
z
M 2656 4762 
L 3712 4762 
L 3712 4186 
L 2656 4186 
L 2656 4762 
z
M 1197 4762 
L 2214 4762 
L 2214 4186 
L 1197 4186 
L 1197 4762 
z
M 2374 1798 
L 4979 1798 
L 4979 1440 
L 2374 1440 
L 2374 1798 
z
M 2374 1152 
L 4979 1152 
L 4979 794 
L 2374 794 
L 2374 1152 
z
M 2374 2432 
L 4979 2432 
L 4979 2086 
L 2374 2086 
L 2374 2432 
z
M 1920 2726 
L 1920 499 
L 5440 499 
L 5440 2726 
L 3347 2726 
L 3418 3104 
L 5971 3104 
L 5971 3482 
L 3482 3482 
L 3533 3834 
L 5715 3834 
L 5715 5107 
L 736 5107 
L 736 3834 
L 3046 3834 
L 3002 3482 
L 435 3482 
L 435 3104 
L 2944 3104 
L 2880 2726 
L 1920 2726 
z
M 787 2630 
L 787 -518 
L 1274 -518 
L 1274 -243 
L 6138 -243 
L 6138 141 
L 1274 141 
L 1274 2630 
L 787 2630 
z
" transform="scale(0.015625)"/>
       <path id="NotoSansCJKjp-Regular-20" transform="scale(0.015625)"/>
       <path id="NotoSansCJKjp-Regular-70" d="M 589 -1466 
L 1178 -1466 
L 1178 -288 
L 1158 320 
C 1472 58 1805 -83 2118 -83 
C 2912 -83 3629 602 3629 1792 
C 3629 2867 3142 3565 2246 3565 
C 1843 3565 1453 3334 1139 3072 
L 1126 3072 
L 1069 3475 
L 589 3475 
L 589 -1466 
z
M 2022 410 
C 1792 410 1485 499 1178 768 
L 1178 2598 
C 1510 2906 1811 3072 2099 3072 
C 2765 3072 3021 2560 3021 1786 
C 3021 928 2598 410 2022 410 
z
" transform="scale(0.015625)"/>
       <path id="NotoSansCJKjp-Regular-5b" d="M 678 -1088 
L 1946 -1088 
L 1946 -755 
L 1114 -755 
L 1114 4730 
L 1946 4730 
L 1946 5069 
L 678 5069 
L 678 -1088 
z
" transform="scale(0.015625)"/>
       <path id="NotoSansCJKjp-Regular-6d" d="M 589 0 
L 1178 0 
L 1178 2522 
C 1491 2880 1786 3053 2048 3053 
C 2490 3053 2694 2778 2694 2125 
L 2694 0 
L 3277 0 
L 3277 2522 
C 3603 2880 3885 3053 4154 3053 
C 4595 3053 4800 2778 4800 2125 
L 4800 0 
L 5382 0 
L 5382 2202 
C 5382 3085 5043 3565 4333 3565 
C 3904 3565 3546 3290 3181 2899 
C 3040 3309 2758 3565 2221 3565 
C 1805 3565 1446 3302 1139 2970 
L 1126 2970 
L 1069 3475 
L 589 3475 
L 589 0 
z
" transform="scale(0.015625)"/>
       <path id="NotoSansCJKjp-Regular-5d" d="M 218 -1088 
L 1491 -1088 
L 1491 5069 
L 218 5069 
L 218 4730 
L 1050 4730 
L 1050 -755 
L 218 -755 
L 218 -1088 
z
" transform="scale(0.015625)"/>
      </defs>
      <use xlink:href="#NotoSansCJKjp-Regular-4f4d"/>
      <use xlink:href="#NotoSansCJKjp-Regular-7f6e" transform="translate(99.999985 0)"/>
      <use xlink:href="#NotoSansCJKjp-Regular-20" transform="translate(199.999969 0)"/>
      <use xlink:href="#NotoSansCJKjp-Regular-70" transform="translate(222.399963 0)"/>
      <use xlink:href="#NotoSansCJKjp-Regular-20" transform="translate(284.399948 0)"/>
      <use xlink:href="#NotoSansCJKjp-Regular-5b" transform="translate(306.799942 0)"/>
      <use xlink:href="#NotoSansCJKjp-Regular-6d" transform="translate(340.59993 0)"/>
      <use xlink:href="#NotoSansCJKjp-Regular-5d" transform="translate(433.199921 0)"/>
     </g>
    </g>
   </g>
   <g id="line2d_33">
    <path d="M 87.152727 267.940878 
L 91.300645 265.251689 
L 95.448563 262.304862 
L 99.794 258.942554 
L 104.139437 255.299909 
L 108.682395 251.193284 
L 113.225352 246.783004 
L 117.96583 241.858733 
L 122.706307 236.606926 
L 127.644304 230.797541 
L 132.977341 224.173945 
L 138.902938 216.448257 
L 145.618614 207.314142 
L 153.914449 195.630872 
L 169.12348 173.723905 
L 179.789554 158.56428 
L 187.29531 148.271731 
L 193.615946 139.968383 
L 199.344023 132.804876 
L 204.47954 126.724152 
L 209.417537 121.220179 
L 213.960494 116.481978 
L 218.305932 112.263166 
L 222.651369 108.357838 
L 226.799287 104.921326 
L 230.947205 101.768127 
L 235.095122 98.897055 
L 239.04552 96.423913 
L 242.995918 94.204578 
L 246.946315 92.238037 
L 250.896713 90.523281 
L 254.847111 89.059304 
L 258.599989 87.899898 
L 262.352866 86.965061 
L 266.105744 86.253942 
L 269.858622 85.765693 
L 273.6115 85.499467 
L 277.364378 85.454423 
L 281.117256 85.629722 
L 284.870134 86.024527 
L 288.623011 86.638007 
L 292.375889 87.469331 
L 296.326287 88.578846 
L 300.276685 89.927865 
L 304.227082 91.51543 
L 308.17748 93.340591 
L 312.127878 95.402399 
L 316.275795 97.820953 
L 320.423713 100.49828 
L 324.571631 103.433294 
L 328.917068 106.78328 
L 333.262506 110.413656 
L 337.805463 114.507512 
L 342.34842 118.90315 
L 347.286418 124.001861 
L 352.619455 129.84634 
L 358.347531 136.465148 
L 364.668168 144.111486 
L 372.173923 153.551014 
L 382.444957 166.859774 
L 401.604386 191.733683 
L 409.307662 201.328468 
L 415.825818 209.10133 
L 421.553895 215.600753 
L 426.886932 221.324696 
L 431.824929 226.307548 
L 436.565406 230.775951 
L 441.108364 234.745687 
L 445.256281 238.08621 
L 449.404199 241.145223 
L 453.552116 243.922505 
L 457.502514 246.306688 
L 461.452912 248.437419 
L 465.40331 250.31571 
L 469.353707 251.942569 
L 473.304105 253.319 
L 477.056983 254.395561 
L 480.809861 255.247866 
L 484.562739 255.876766 
L 488.315616 256.283109 
L 492.068494 256.467739 
L 495.821372 256.431497 
L 499.57425 256.175221 
L 503.327128 255.699745 
L 507.080006 255.0059 
L 510.832884 254.094516 
L 514.783281 252.901056 
L 518.733679 251.468427 
L 522.684077 249.797585 
L 526.634474 247.88948 
L 530.782392 245.631653 
L 534.93031 243.114379 
L 539.078227 240.338748 
L 543.423665 237.155018 
L 547.769102 233.693103 
L 552.31206 229.793234 
L 557.250057 225.25409 
L 562.583094 220.034153 
L 568.31117 214.104345 
L 574.631807 207.233244 
L 581.940043 198.951805 
L 591.420997 187.852006 
L 615.123384 159.95183 
L 622.629139 151.54856 
L 628.949776 144.790183 
L 634.677852 138.976635 
L 640.010889 133.872971 
L 644.948886 129.444779 
L 649.689364 125.487839 
L 654.232321 121.986271 
L 658.577759 118.91915 
L 662.725676 116.26162 
L 666.676074 113.985723 
L 670.626472 111.962647 
L 674.576869 110.191581 
L 678.527267 108.671519 
L 682.280145 107.45904 
L 686.033023 106.471332 
L 689.785901 105.707542 
L 693.538778 105.166821 
L 697.291656 104.848323 
L 701.044534 104.751205 
L 704.797412 104.874627 
L 708.55029 105.217753 
L 712.303168 105.779748 
L 716.056045 106.559784 
L 720.006443 107.615522 
L 723.956841 108.910977 
L 727.907239 110.445194 
L 731.857636 112.217218 
L 735.808034 114.226102 
L 739.955952 116.589055 
L 744.103869 119.205117 
L 748.449307 122.203763 
L 752.992264 125.604305 
L 757.930261 129.586424 
L 763.065778 134.016212 
L 768.596335 139.080071 
L 774.719452 144.992575 
L 781.632648 151.983321 
L 790.126003 160.905092 
L 804.544955 176.44267 
L 816.791187 189.496896 
L 824.691983 197.600893 
L 831.407659 204.179122 
L 837.333256 209.68394 
L 842.863812 214.524255 
L 847.99933 218.729038 
L 852.937327 222.483121 
L 857.480284 225.667387 
L 862.023241 228.57723 
L 866.368679 231.090703 
L 870.516597 233.233463 
L 874.466994 235.033434 
L 877.232273 236.15018 
L 877.232273 236.15018 
" clip-path="url(#p53d4ace78c)" style="fill: none; stroke: #bd5b28; stroke-width: 2.5; stroke-linecap: square"/>
   </g>
   <g id="line2d_34">
    <path d="M 87.152727 267.940878 
L 92.288244 264.640117 
L 98.213841 260.554575 
L 105.127037 255.502025 
L 113.817912 248.859372 
L 147.791332 222.597455 
L 156.087168 216.629814 
L 163.592923 211.498196 
L 170.703639 206.900525 
L 177.616835 202.695483 
L 184.332511 198.872472 
L 190.850668 195.415358 
L 197.368824 192.210856 
L 203.88698 189.258908 
L 210.405136 186.556891 
L 216.923293 184.099975 
L 223.441449 181.881463 
L 229.959605 179.893094 
L 236.675281 178.075101 
L 243.588477 176.43606 
L 250.699193 174.982035 
L 258.007429 173.71646 
L 265.513185 172.640094 
L 273.41398 171.73091 
L 281.709815 170.999512 
L 290.59821 170.441479 
L 300.079165 170.070468 
L 310.547719 169.888988 
L 322.201392 169.917368 
L 335.435224 170.177457 
L 351.631855 170.72775 
L 374.544162 171.750306 
L 430.44229 174.315354 
L 455.527315 175.196162 
L 480.217301 175.839839 
L 506.289926 176.293852 
L 535.522869 176.575163 
L 571.273969 176.687124 
L 624.604338 176.606783 
L 781.237608 176.282489 
L 877.232273 176.270996 
L 877.232273 176.270996 
" clip-path="url(#p53d4ace78c)" style="fill: none; stroke: #2563a6; stroke-width: 2.5; stroke-linecap: square"/>
   </g>
   <g id="line2d_35">
    <path d="M 47.64875 176.291976 
L 916.73625 176.291976 
" clip-path="url(#p53d4ace78c)" style="fill: none; stroke-dasharray: 5.55,2.4; stroke-dashoffset: 0; stroke: #65798b; stroke-width: 1.5"/>
   </g>
   <g id="patch_3">
    <path d="M 47.64875 277.065682 
L 47.64875 76.32 
" style="fill: none; stroke: #000000; stroke-width: 0.8; stroke-linejoin: miter; stroke-linecap: square"/>
   </g>
   <g id="patch_4">
    <path d="M 47.64875 277.065682 
L 916.73625 277.065682 
" style="fill: none; stroke: #000000; stroke-width: 0.8; stroke-linejoin: miter; stroke-linecap: square"/>
   </g>
   <g id="legend_1">
    <g id="patch_5">
     <path d="M 815.348906 135.445 
L 909.03625 135.445 
Q 911.23625 135.445 911.23625 133.245 
L 911.23625 84.02 
Q 911.23625 81.82 909.03625 81.82 
L 815.348906 81.82 
Q 813.148906 81.82 813.148906 84.02 
L 813.148906 133.245 
Q 813.148906 135.445 815.348906 135.445 
z
" style="fill: #ffffff; opacity: 0.8; stroke: #cccccc; stroke-linejoin: miter"/>
    </g>
    <g id="line2d_36">
     <path d="M 817.548906 91.125313 
L 828.548906 91.125313 
L 839.548906 91.125313 
" style="fill: none; stroke: #bd5b28; stroke-width: 2.5; stroke-linecap: square"/>
    </g>
    <g id="text_9">
     <!-- P 控制 -->
     <g transform="translate(848.348906 94.975313) scale(0.11 -0.11)">
      <defs>
       <path id="NotoSansCJKjp-Regular-50" d="M 646 0 
L 1235 0 
L 1235 1869 
L 2010 1869 
C 3040 1869 3738 2323 3738 3315 
C 3738 4339 3034 4691 1984 4691 
L 646 4691 
L 646 0 
z
M 1235 2349 
L 1235 4211 
L 1907 4211 
C 2733 4211 3149 4000 3149 3315 
C 3149 2643 2758 2349 1933 2349 
L 1235 2349 
z
" transform="scale(0.015625)"/>
       <path id="NotoSansCJKjp-Regular-63a7" d="M 2099 109 
L 2099 -333 
L 6144 -333 
L 6144 109 
L 4371 109 
L 4371 1459 
L 5837 1459 
L 5837 1901 
L 2509 1901 
L 2509 1459 
L 3891 1459 
L 3891 109 
L 2099 109 
z
M 3898 5382 
L 3898 4704 
L 2298 4704 
L 2298 3610 
L 2720 3610 
L 2720 4288 
L 3398 4288 
C 3354 3360 3187 2867 2266 2611 
C 2355 2534 2470 2374 2502 2272 
C 3558 2592 3782 3194 3840 4288 
L 4442 4288 
L 4442 3027 
C 4442 2598 4544 2470 4998 2470 
C 5088 2470 5491 2470 5587 2470 
C 5933 2470 6054 2637 6099 3264 
C 5978 3296 5798 3366 5709 3437 
C 5690 2944 5664 2874 5530 2874 
C 5446 2874 5120 2874 5056 2874 
C 4915 2874 4890 2893 4890 3034 
L 4890 4288 
L 5651 4288 
L 5651 3661 
L 6093 3661 
L 6093 4704 
L 4371 4704 
L 4371 5382 
L 3898 5382 
z
M 1069 5370 
L 1069 4083 
L 269 4083 
L 269 3635 
L 1069 3635 
L 1069 2349 
L 179 2054 
L 301 1594 
L 1069 1869 
L 1069 45 
C 1069 -45 1037 -70 960 -70 
C 883 -77 634 -77 358 -64 
C 416 -198 480 -397 493 -512 
C 902 -518 1146 -499 1299 -422 
C 1459 -352 1517 -218 1517 45 
L 1517 2029 
L 2234 2291 
L 2150 2726 
L 1517 2502 
L 1517 3635 
L 2189 3635 
L 2189 4083 
L 1517 4083 
L 1517 5370 
L 1069 5370 
z
" transform="scale(0.015625)"/>
       <path id="NotoSansCJKjp-Regular-5236" d="M 4326 4787 
L 4326 1242 
L 4781 1242 
L 4781 4787 
L 4326 4787 
z
M 5466 5312 
L 5466 147 
C 5466 45 5434 13 5338 13 
C 5216 6 4858 6 4480 19 
C 4544 -128 4614 -352 4640 -486 
C 5120 -486 5472 -474 5664 -397 
C 5862 -307 5939 -166 5939 154 
L 5939 5312 
L 5466 5312 
z
M 909 5222 
C 774 4602 557 3962 262 3533 
C 384 3488 595 3405 691 3354 
C 800 3539 909 3763 1011 4013 
L 1850 4013 
L 1850 3341 
L 288 3341 
L 288 2899 
L 1850 2899 
L 1850 2246 
L 582 2246 
L 582 13 
L 1018 13 
L 1018 1811 
L 1850 1811 
L 1850 -506 
L 2310 -506 
L 2310 1811 
L 3200 1811 
L 3200 499 
C 3200 429 3181 410 3110 410 
C 3040 403 2829 403 2560 416 
C 2618 294 2675 122 2694 -6 
C 3046 -6 3296 0 3443 70 
C 3603 147 3642 269 3642 486 
L 3642 2246 
L 2310 2246 
L 2310 2899 
L 3866 2899 
L 3866 3341 
L 2310 3341 
L 2310 4013 
L 3616 4013 
L 3616 4454 
L 2310 4454 
L 2310 5350 
L 1850 5350 
L 1850 4454 
L 1171 4454 
C 1242 4672 1306 4902 1357 5133 
L 909 5222 
z
" transform="scale(0.015625)"/>
      </defs>
      <use xlink:href="#NotoSansCJKjp-Regular-50"/>
      <use xlink:href="#NotoSansCJKjp-Regular-20" transform="translate(63.299988 0)"/>
      <use xlink:href="#NotoSansCJKjp-Regular-63a7" transform="translate(85.699982 0)"/>
      <use xlink:href="#NotoSansCJKjp-Regular-5236" transform="translate(185.699966 0)"/>
     </g>
    </g>
    <g id="line2d_37">
     <path d="M 817.548906 107.900313 
L 828.548906 107.900313 
L 839.548906 107.900313 
" style="fill: none; stroke: #2563a6; stroke-width: 2.5; stroke-linecap: square"/>
    </g>
    <g id="text_10">
     <!-- PD 控制 -->
     <g transform="translate(848.348906 111.750313) scale(0.11 -0.11)">
      <defs>
       <path id="NotoSansCJKjp-Regular-44" d="M 646 0 
L 1843 0 
C 3258 0 4026 877 4026 2362 
C 4026 3859 3258 4691 1818 4691 
L 646 4691 
L 646 0 
z
M 1235 486 
L 1235 4211 
L 1766 4211 
C 2874 4211 3418 3552 3418 2362 
C 3418 1178 2874 486 1766 486 
L 1235 486 
z
" transform="scale(0.015625)"/>
      </defs>
      <use xlink:href="#NotoSansCJKjp-Regular-50"/>
      <use xlink:href="#NotoSansCJKjp-Regular-44" transform="translate(63.299988 0)"/>
      <use xlink:href="#NotoSansCJKjp-Regular-20" transform="translate(132.099976 0)"/>
      <use xlink:href="#NotoSansCJKjp-Regular-63a7" transform="translate(154.499969 0)"/>
      <use xlink:href="#NotoSansCJKjp-Regular-5236" transform="translate(254.499954 0)"/>
     </g>
    </g>
    <g id="line2d_38">
     <path d="M 817.548906 124.675313 
L 828.548906 124.675313 
L 839.548906 124.675313 
" style="fill: none; stroke-dasharray: 5.55,2.4; stroke-dashoffset: 0; stroke: #65798b; stroke-width: 1.5"/>
    </g>
    <g id="text_11">
     <!-- 目标 1.00 m -->
     <g transform="translate(848.348906 128.525313) scale(0.11 -0.11)">
      <defs>
       <path id="NotoSansCJKjp-Regular-76ee" d="M 1491 3008 
L 4858 3008 
L 4858 1952 
L 1491 1952 
L 1491 3008 
z
M 1491 3469 
L 1491 4506 
L 4858 4506 
L 4858 3469 
L 1491 3469 
z
M 1491 1491 
L 4858 1491 
L 4858 429 
L 1491 429 
L 1491 1491 
z
M 1011 4979 
L 1011 -474 
L 1491 -474 
L 1491 -38 
L 4858 -38 
L 4858 -474 
L 5357 -474 
L 5357 4979 
L 1011 4979 
z
" transform="scale(0.015625)"/>
       <path id="NotoSansCJKjp-Regular-6807" d="M 2982 4890 
L 2982 4435 
L 5773 4435 
L 5773 4890 
L 2982 4890 
z
M 4986 2080 
C 5286 1440 5587 608 5683 102 
L 6125 262 
C 6016 768 5709 1581 5395 2208 
L 4986 2080 
z
M 3142 2189 
C 2976 1510 2688 826 2330 365 
C 2438 314 2630 179 2720 115 
C 3066 602 3386 1350 3584 2093 
L 3142 2189 
z
M 2701 3360 
L 2701 2906 
L 4070 2906 
L 4070 115 
C 4070 32 4045 6 3949 0 
C 3866 0 3565 -6 3232 6 
C 3296 -141 3366 -346 3386 -486 
C 3834 -486 4128 -474 4314 -397 
C 4499 -314 4557 -166 4557 109 
L 4557 2906 
L 6118 2906 
L 6118 3360 
L 2701 3360 
z
M 1293 5376 
L 1293 4019 
L 314 4019 
L 314 3571 
L 1190 3571 
C 979 2778 563 1856 154 1376 
C 243 1254 371 1056 422 928 
C 742 1338 1056 2010 1293 2701 
L 1293 -506 
L 1773 -506 
L 1773 2842 
C 1990 2528 2246 2131 2355 1926 
L 2637 2304 
C 2509 2483 1958 3187 1773 3398 
L 1773 3571 
L 2611 3571 
L 2611 4019 
L 1773 4019 
L 1773 5376 
L 1293 5376 
z
" transform="scale(0.015625)"/>
      </defs>
      <use xlink:href="#NotoSansCJKjp-Regular-76ee"/>
      <use xlink:href="#NotoSansCJKjp-Regular-6807" transform="translate(99.999985 0)"/>
      <use xlink:href="#NotoSansCJKjp-Regular-20" transform="translate(199.999969 0)"/>
      <use xlink:href="#NotoSansCJKjp-Regular-31" transform="translate(222.399963 0)"/>
      <use xlink:href="#NotoSansCJKjp-Regular-2e" transform="translate(277.899948 0)"/>
      <use xlink:href="#NotoSansCJKjp-Regular-30" transform="translate(305.699936 0)"/>
      <use xlink:href="#NotoSansCJKjp-Regular-30" transform="translate(361.199921 0)"/>
      <use xlink:href="#NotoSansCJKjp-Regular-20" transform="translate(416.699905 0)"/>
      <use xlink:href="#NotoSansCJKjp-Regular-6d" transform="translate(439.099899 0)"/>
     </g>
    </g>
   </g>
  </g>
  <g id="axes_2">
   <g id="patch_6">
    <path d="M 47.64875 460.81375 
L 916.73625 460.81375 
L 916.73625 293.525682 
L 47.64875 293.525682 
z
" style="fill: #ffffff"/>
   </g>
   <g id="matplotlib.axis_3">
    <g id="xtick_10">
     <g id="line2d_39">
      <path d="M 87.152727 460.81375 
L 87.152727 293.525682 
" clip-path="url(#p888b3b36bf)" style="fill: none; stroke: #b0b0b0; stroke-opacity: 0.18; stroke-width: 0.8; stroke-linecap: square"/>
     </g>
     <g id="line2d_40">
      <g>
       <use xlink:href="#m651388876b" x="87.152727" y="460.81375" style="stroke: #000000; stroke-width: 0.8"/>
      </g>
     </g>
     <g id="text_12">
      <!-- 0.0 -->
      <g transform="translate(78.824915 477.365) scale(0.12 -0.12)">
       <use xlink:href="#NotoSansCJKjp-Regular-30"/>
       <use xlink:href="#NotoSansCJKjp-Regular-2e" transform="translate(55.499985 0)"/>
       <use xlink:href="#NotoSansCJKjp-Regular-30" transform="translate(83.299973 0)"/>
      </g>
     </g>
    </g>
    <g id="xtick_11">
     <g id="line2d_41">
      <path d="M 185.91267 460.81375 
L 185.91267 293.525682 
" clip-path="url(#p888b3b36bf)" style="fill: none; stroke: #b0b0b0; stroke-opacity: 0.18; stroke-width: 0.8; stroke-linecap: square"/>
     </g>
     <g id="line2d_42">
      <g>
       <use xlink:href="#m651388876b" x="185.91267" y="460.81375" style="stroke: #000000; stroke-width: 0.8"/>
      </g>
     </g>
     <g id="text_13">
      <!-- 0.5 -->
      <g transform="translate(177.584858 477.365) scale(0.12 -0.12)">
       <defs>
        <path id="NotoSansCJKjp-Regular-35" d="M 1677 -83 
C 2464 -83 3213 499 3213 1523 
C 3213 2560 2573 3021 1798 3021 
C 1517 3021 1306 2950 1094 2835 
L 1216 4192 
L 2982 4192 
L 2982 4691 
L 704 4691 
L 550 2502 
L 864 2304 
C 1133 2483 1331 2579 1645 2579 
C 2234 2579 2618 2182 2618 1510 
C 2618 826 2176 403 1619 403 
C 1075 403 730 653 467 922 
L 173 538 
C 493 224 941 -83 1677 -83 
z
" transform="scale(0.015625)"/>
       </defs>
       <use xlink:href="#NotoSansCJKjp-Regular-30"/>
       <use xlink:href="#NotoSansCJKjp-Regular-2e" transform="translate(55.499985 0)"/>
       <use xlink:href="#NotoSansCJKjp-Regular-35" transform="translate(83.299973 0)"/>
      </g>
     </g>
    </g>
    <g id="xtick_12">
     <g id="line2d_43">
      <path d="M 284.672614 460.81375 
L 284.672614 293.525682 
" clip-path="url(#p888b3b36bf)" style="fill: none; stroke: #b0b0b0; stroke-opacity: 0.18; stroke-width: 0.8; stroke-linecap: square"/>
     </g>
     <g id="line2d_44">
      <g>
       <use xlink:href="#m651388876b" x="284.672614" y="460.81375" style="stroke: #000000; stroke-width: 0.8"/>
      </g>
     </g>
     <g id="text_14">
      <!-- 1.0 -->
      <g transform="translate(276.344801 477.365) scale(0.12 -0.12)">
       <use xlink:href="#NotoSansCJKjp-Regular-31"/>
       <use xlink:href="#NotoSansCJKjp-Regular-2e" transform="translate(55.499985 0)"/>
       <use xlink:href="#NotoSansCJKjp-Regular-30" transform="translate(83.299973 0)"/>
      </g>
     </g>
    </g>
    <g id="xtick_13">
     <g id="line2d_45">
      <path d="M 383.432557 460.81375 
L 383.432557 293.525682 
" clip-path="url(#p888b3b36bf)" style="fill: none; stroke: #b0b0b0; stroke-opacity: 0.18; stroke-width: 0.8; stroke-linecap: square"/>
     </g>
     <g id="line2d_46">
      <g>
       <use xlink:href="#m651388876b" x="383.432557" y="460.81375" style="stroke: #000000; stroke-width: 0.8"/>
      </g>
     </g>
     <g id="text_15">
      <!-- 1.5 -->
      <g transform="translate(375.104744 477.365) scale(0.12 -0.12)">
       <use xlink:href="#NotoSansCJKjp-Regular-31"/>
       <use xlink:href="#NotoSansCJKjp-Regular-2e" transform="translate(55.499985 0)"/>
       <use xlink:href="#NotoSansCJKjp-Regular-35" transform="translate(83.299973 0)"/>
      </g>
     </g>
    </g>
    <g id="xtick_14">
     <g id="line2d_47">
      <path d="M 482.1925 460.81375 
L 482.1925 293.525682 
" clip-path="url(#p888b3b36bf)" style="fill: none; stroke: #b0b0b0; stroke-opacity: 0.18; stroke-width: 0.8; stroke-linecap: square"/>
     </g>
     <g id="line2d_48">
      <g>
       <use xlink:href="#m651388876b" x="482.1925" y="460.81375" style="stroke: #000000; stroke-width: 0.8"/>
      </g>
     </g>
     <g id="text_16">
      <!-- 2.0 -->
      <g transform="translate(473.864688 477.365) scale(0.12 -0.12)">
       <use xlink:href="#NotoSansCJKjp-Regular-32"/>
       <use xlink:href="#NotoSansCJKjp-Regular-2e" transform="translate(55.499985 0)"/>
       <use xlink:href="#NotoSansCJKjp-Regular-30" transform="translate(83.299973 0)"/>
      </g>
     </g>
    </g>
    <g id="xtick_15">
     <g id="line2d_49">
      <path d="M 580.952443 460.81375 
L 580.952443 293.525682 
" clip-path="url(#p888b3b36bf)" style="fill: none; stroke: #b0b0b0; stroke-opacity: 0.18; stroke-width: 0.8; stroke-linecap: square"/>
     </g>
     <g id="line2d_50">
      <g>
       <use xlink:href="#m651388876b" x="580.952443" y="460.81375" style="stroke: #000000; stroke-width: 0.8"/>
      </g>
     </g>
     <g id="text_17">
      <!-- 2.5 -->
      <g transform="translate(572.624631 477.365) scale(0.12 -0.12)">
       <use xlink:href="#NotoSansCJKjp-Regular-32"/>
       <use xlink:href="#NotoSansCJKjp-Regular-2e" transform="translate(55.499985 0)"/>
       <use xlink:href="#NotoSansCJKjp-Regular-35" transform="translate(83.299973 0)"/>
      </g>
     </g>
    </g>
    <g id="xtick_16">
     <g id="line2d_51">
      <path d="M 679.712386 460.81375 
L 679.712386 293.525682 
" clip-path="url(#p888b3b36bf)" style="fill: none; stroke: #b0b0b0; stroke-opacity: 0.18; stroke-width: 0.8; stroke-linecap: square"/>
     </g>
     <g id="line2d_52">
      <g>
       <use xlink:href="#m651388876b" x="679.712386" y="460.81375" style="stroke: #000000; stroke-width: 0.8"/>
      </g>
     </g>
     <g id="text_18">
      <!-- 3.0 -->
      <g transform="translate(671.384574 477.365) scale(0.12 -0.12)">
       <use xlink:href="#NotoSansCJKjp-Regular-33"/>
       <use xlink:href="#NotoSansCJKjp-Regular-2e" transform="translate(55.499985 0)"/>
       <use xlink:href="#NotoSansCJKjp-Regular-30" transform="translate(83.299973 0)"/>
      </g>
     </g>
    </g>
    <g id="xtick_17">
     <g id="line2d_53">
      <path d="M 778.47233 460.81375 
L 778.47233 293.525682 
" clip-path="url(#p888b3b36bf)" style="fill: none; stroke: #b0b0b0; stroke-opacity: 0.18; stroke-width: 0.8; stroke-linecap: square"/>
     </g>
     <g id="line2d_54">
      <g>
       <use xlink:href="#m651388876b" x="778.47233" y="460.81375" style="stroke: #000000; stroke-width: 0.8"/>
      </g>
     </g>
     <g id="text_19">
      <!-- 3.5 -->
      <g transform="translate(770.144517 477.365) scale(0.12 -0.12)">
       <use xlink:href="#NotoSansCJKjp-Regular-33"/>
       <use xlink:href="#NotoSansCJKjp-Regular-2e" transform="translate(55.499985 0)"/>
       <use xlink:href="#NotoSansCJKjp-Regular-35" transform="translate(83.299973 0)"/>
      </g>
     </g>
    </g>
    <g id="xtick_18">
     <g id="line2d_55">
      <path d="M 877.232273 460.81375 
L 877.232273 293.525682 
" clip-path="url(#p888b3b36bf)" style="fill: none; stroke: #b0b0b0; stroke-opacity: 0.18; stroke-width: 0.8; stroke-linecap: square"/>
     </g>
     <g id="line2d_56">
      <g>
       <use xlink:href="#m651388876b" x="877.232273" y="460.81375" style="stroke: #000000; stroke-width: 0.8"/>
      </g>
     </g>
     <g id="text_20">
      <!-- 4.0 -->
      <g transform="translate(868.90446 477.365) scale(0.12 -0.12)">
       <defs>
        <path id="NotoSansCJKjp-Regular-34" d="M 2176 0 
L 2726 0 
L 2726 1293 
L 3354 1293 
L 3354 1760 
L 2726 1760 
L 2726 4691 
L 2080 4691 
L 128 1677 
L 128 1293 
L 2176 1293 
L 2176 0 
z
M 2176 1760 
L 736 1760 
L 1805 3360 
C 1939 3590 2067 3827 2182 4051 
L 2208 4051 
C 2195 3814 2176 3430 2176 3200 
L 2176 1760 
z
" transform="scale(0.015625)"/>
       </defs>
       <use xlink:href="#NotoSansCJKjp-Regular-34"/>
       <use xlink:href="#NotoSansCJKjp-Regular-2e" transform="translate(55.499985 0)"/>
       <use xlink:href="#NotoSansCJKjp-Regular-30" transform="translate(83.299973 0)"/>
      </g>
     </g>
    </g>
    <g id="text_21">
     <!-- 物理时间 [s] -->
     <g transform="translate(449.984688 493.665) scale(0.12 -0.12)">
      <defs>
       <path id="NotoSansCJKjp-Regular-7269" d="M 3418 5376 
C 3206 4403 2822 3488 2285 2906 
C 2394 2842 2579 2707 2656 2630 
C 2938 2957 3181 3379 3392 3853 
L 3942 3853 
C 3648 2822 3078 1747 2400 1210 
C 2528 1139 2682 1024 2778 928 
C 3482 1542 4064 2746 4358 3853 
L 4883 3853 
C 4550 2234 3859 640 2803 -115 
C 2938 -179 3110 -307 3206 -403 
C 4269 442 4979 2163 5306 3853 
L 5606 3853 
C 5478 1299 5338 346 5133 115 
C 5062 32 4998 13 4890 13 
C 4768 13 4512 19 4224 45 
C 4301 -90 4346 -294 4358 -435 
C 4640 -454 4915 -454 5088 -435 
C 5280 -410 5408 -358 5536 -179 
C 5792 134 5933 1139 6074 4058 
C 6080 4122 6086 4301 6086 4301 
L 3571 4301 
C 3680 4614 3782 4954 3859 5293 
L 3418 5376 
z
M 627 5005 
C 550 4218 422 3405 186 2867 
C 288 2822 474 2707 550 2650 
C 659 2912 755 3245 832 3603 
L 1421 3603 
L 1421 2157 
C 973 2029 550 1907 224 1824 
L 352 1363 
L 1421 1696 
L 1421 -512 
L 1869 -512 
L 1869 1837 
L 2675 2093 
L 2611 2515 
L 1869 2291 
L 1869 3603 
L 2528 3603 
L 2528 4064 
L 1869 4064 
L 1869 5370 
L 1421 5370 
L 1421 4064 
L 922 4064 
C 966 4352 1011 4646 1043 4941 
L 627 5005 
z
" transform="scale(0.015625)"/>
       <path id="NotoSansCJKjp-Regular-7406" d="M 3046 3456 
L 4026 3456 
L 4026 2630 
L 3046 2630 
L 3046 3456 
z
M 4442 3456 
L 5421 3456 
L 5421 2630 
L 4442 2630 
L 4442 3456 
z
M 3046 4659 
L 4026 4659 
L 4026 3846 
L 3046 3846 
L 3046 4659 
z
M 4442 4659 
L 5421 4659 
L 5421 3846 
L 4442 3846 
L 4442 4659 
z
M 2035 141 
L 2035 -301 
L 6189 -301 
L 6189 141 
L 4480 141 
L 4480 1024 
L 5971 1024 
L 5971 1459 
L 4480 1459 
L 4480 2214 
L 5882 2214 
L 5882 5082 
L 2605 5082 
L 2605 2214 
L 3987 2214 
L 3987 1459 
L 2528 1459 
L 2528 1024 
L 3987 1024 
L 3987 141 
L 2035 141 
z
M 224 640 
L 346 154 
C 909 339 1645 589 2336 819 
L 2253 1286 
L 1549 1050 
L 1549 2643 
L 2195 2643 
L 2195 3091 
L 1549 3091 
L 1549 4493 
L 2291 4493 
L 2291 4941 
L 294 4941 
L 294 4493 
L 1088 4493 
L 1088 3091 
L 358 3091 
L 358 2643 
L 1088 2643 
L 1088 902 
C 762 800 467 710 224 640 
z
" transform="scale(0.015625)"/>
       <path id="NotoSansCJKjp-Regular-65f6" d="M 3034 2893 
C 3373 2400 3808 1722 4013 1331 
L 4435 1574 
C 4218 1965 3776 2618 3430 3104 
L 3034 2893 
z
M 2074 2573 
L 2074 1114 
L 979 1114 
L 979 2573 
L 2074 2573 
z
M 2074 3002 
L 979 3002 
L 979 4403 
L 2074 4403 
L 2074 3002 
z
M 518 4838 
L 518 160 
L 979 160 
L 979 678 
L 2522 678 
L 2522 4838 
L 518 4838 
z
M 4890 5344 
L 4890 4096 
L 2816 4096 
L 2816 3622 
L 4890 3622 
L 4890 211 
C 4890 83 4838 38 4710 38 
C 4570 26 4096 26 3597 45 
C 3667 -96 3744 -314 3776 -448 
C 4416 -448 4826 -442 5056 -358 
C 5286 -282 5376 -141 5376 211 
L 5376 3622 
L 6157 3622 
L 6157 4096 
L 5376 4096 
L 5376 5344 
L 4890 5344 
z
" transform="scale(0.015625)"/>
       <path id="NotoSansCJKjp-Regular-95f4" d="M 582 3936 
L 582 -512 
L 1075 -512 
L 1075 3936 
L 582 3936 
z
M 678 5062 
C 973 4781 1306 4378 1453 4122 
L 1850 4378 
C 1696 4646 1350 5024 1050 5293 
L 678 5062 
z
M 2426 1888 
L 3962 1888 
L 3962 1024 
L 2426 1024 
L 2426 1888 
z
M 2426 3142 
L 3962 3142 
L 3962 2291 
L 2426 2291 
L 2426 3142 
z
M 1990 3546 
L 1990 627 
L 4416 627 
L 4416 3546 
L 1990 3546 
z
M 2253 5018 
L 2253 4563 
L 5350 4563 
L 5350 70 
C 5350 -13 5325 -38 5242 -45 
C 5158 -45 4896 -51 4627 -38 
C 4691 -160 4755 -365 4781 -480 
C 5171 -480 5446 -480 5619 -403 
C 5786 -320 5843 -198 5843 70 
L 5843 5018 
L 2253 5018 
z
" transform="scale(0.015625)"/>
       <path id="NotoSansCJKjp-Regular-73" d="M 1498 -83 
C 2317 -83 2758 384 2758 947 
C 2758 1606 2208 1811 1702 2003 
C 1312 2150 954 2278 954 2605 
C 954 2880 1158 3110 1600 3110 
C 1907 3110 2150 2976 2387 2803 
L 2669 3168 
C 2406 3386 2022 3565 1594 3565 
C 832 3565 397 3130 397 2579 
C 397 1984 922 1754 1408 1574 
C 1792 1434 2202 1267 2202 915 
C 2202 614 1978 371 1517 371 
C 1101 371 794 538 486 787 
L 205 397 
C 531 122 1005 -83 1498 -83 
z
" transform="scale(0.015625)"/>
      </defs>
      <use xlink:href="#NotoSansCJKjp-Regular-7269"/>
      <use xlink:href="#NotoSansCJKjp-Regular-7406" transform="translate(99.999985 0)"/>
      <use xlink:href="#NotoSansCJKjp-Regular-65f6" transform="translate(199.999969 0)"/>
      <use xlink:href="#NotoSansCJKjp-Regular-95f4" transform="translate(299.999954 0)"/>
      <use xlink:href="#NotoSansCJKjp-Regular-20" transform="translate(399.999939 0)"/>
      <use xlink:href="#NotoSansCJKjp-Regular-5b" transform="translate(422.399933 0)"/>
      <use xlink:href="#NotoSansCJKjp-Regular-73" transform="translate(456.199921 0)"/>
      <use xlink:href="#NotoSansCJKjp-Regular-5d" transform="translate(502.999908 0)"/>
     </g>
    </g>
   </g>
   <g id="matplotlib.axis_4">
    <g id="ytick_8">
     <g id="line2d_57">
      <path d="M 47.64875 453.209747 
L 916.73625 453.209747 
" clip-path="url(#p888b3b36bf)" style="fill: none; stroke: #b0b0b0; stroke-opacity: 0.18; stroke-width: 0.8; stroke-linecap: square"/>
     </g>
     <g id="line2d_58">
      <g>
       <use xlink:href="#m61ccf2fc05" x="47.64875" y="453.209747" style="stroke: #000000; stroke-width: 0.8"/>
      </g>
     </g>
     <g id="text_22">
      <!-- -4 -->
      <g transform="translate(29.824375 457.985372) scale(0.12 -0.12)">
       <defs>
        <path id="NotoSansCJKjp-Regular-2d" d="M 294 1568 
L 1933 1568 
L 1933 2016 
L 294 2016 
L 294 1568 
z
" transform="scale(0.015625)"/>
       </defs>
       <use xlink:href="#NotoSansCJKjp-Regular-2d"/>
       <use xlink:href="#NotoSansCJKjp-Regular-34" transform="translate(34.699997 0)"/>
      </g>
     </g>
    </g>
    <g id="ytick_9">
     <g id="line2d_59">
      <path d="M 47.64875 415.189731 
L 916.73625 415.189731 
" clip-path="url(#p888b3b36bf)" style="fill: none; stroke: #b0b0b0; stroke-opacity: 0.18; stroke-width: 0.8; stroke-linecap: square"/>
     </g>
     <g id="line2d_60">
      <g>
       <use xlink:href="#m61ccf2fc05" x="47.64875" y="415.189731" style="stroke: #000000; stroke-width: 0.8"/>
      </g>
     </g>
     <g id="text_23">
      <!-- -2 -->
      <g transform="translate(29.824375 419.965356) scale(0.12 -0.12)">
       <use xlink:href="#NotoSansCJKjp-Regular-2d"/>
       <use xlink:href="#NotoSansCJKjp-Regular-32" transform="translate(34.699997 0)"/>
      </g>
     </g>
    </g>
    <g id="ytick_10">
     <g id="line2d_61">
      <path d="M 47.64875 377.169716 
L 916.73625 377.169716 
" clip-path="url(#p888b3b36bf)" style="fill: none; stroke: #b0b0b0; stroke-opacity: 0.18; stroke-width: 0.8; stroke-linecap: square"/>
     </g>
     <g id="line2d_62">
      <g>
       <use xlink:href="#m61ccf2fc05" x="47.64875" y="377.169716" style="stroke: #000000; stroke-width: 0.8"/>
      </g>
     </g>
     <g id="text_24">
      <!-- 0 -->
      <g transform="translate(33.98875 381.945341) scale(0.12 -0.12)">
       <use xlink:href="#NotoSansCJKjp-Regular-30"/>
      </g>
     </g>
    </g>
    <g id="ytick_11">
     <g id="line2d_63">
      <path d="M 47.64875 339.1497 
L 916.73625 339.1497 
" clip-path="url(#p888b3b36bf)" style="fill: none; stroke: #b0b0b0; stroke-opacity: 0.18; stroke-width: 0.8; stroke-linecap: square"/>
     </g>
     <g id="line2d_64">
      <g>
       <use xlink:href="#m61ccf2fc05" x="47.64875" y="339.1497" style="stroke: #000000; stroke-width: 0.8"/>
      </g>
     </g>
     <g id="text_25">
      <!-- 2 -->
      <g transform="translate(33.98875 343.925325) scale(0.12 -0.12)">
       <use xlink:href="#NotoSansCJKjp-Regular-32"/>
      </g>
     </g>
    </g>
    <g id="ytick_12">
     <g id="line2d_65">
      <path d="M 47.64875 301.129685 
L 916.73625 301.129685 
" clip-path="url(#p888b3b36bf)" style="fill: none; stroke: #b0b0b0; stroke-opacity: 0.18; stroke-width: 0.8; stroke-linecap: square"/>
     </g>
     <g id="line2d_66">
      <g>
       <use xlink:href="#m61ccf2fc05" x="47.64875" y="301.129685" style="stroke: #000000; stroke-width: 0.8"/>
      </g>
     </g>
     <g id="text_26">
      <!-- 4 -->
      <g transform="translate(33.98875 305.90531) scale(0.12 -0.12)">
       <use xlink:href="#NotoSansCJKjp-Regular-34"/>
      </g>
     </g>
    </g>
    <g id="text_27">
     <!-- 实际推力 u [N] -->
     <g transform="translate(23.075625 415.894091) rotate(-90) scale(0.12 -0.12)">
      <defs>
       <path id="NotoSansCJKjp-Regular-5b9e" d="M 3443 685 
C 4294 365 5146 -77 5664 -474 
L 5958 -96 
C 5427 282 4531 723 3674 1037 
L 3443 685 
z
M 1536 3565 
C 1882 3360 2291 3040 2477 2816 
L 2784 3162 
C 2586 3392 2170 3680 1824 3872 
L 1536 3565 
z
M 896 2566 
C 1261 2368 1690 2048 1894 1818 
L 2189 2182 
C 1978 2406 1542 2701 1184 2886 
L 896 2566 
z
M 576 4646 
L 576 3347 
L 1056 3347 
L 1056 4198 
L 5338 4198 
L 5338 3347 
L 5837 3347 
L 5837 4646 
L 3642 4646 
C 3546 4870 3379 5184 3219 5421 
L 2746 5274 
C 2861 5082 2982 4851 3072 4646 
L 576 4646 
z
M 454 1638 
L 454 1222 
L 2765 1222 
C 2406 602 1747 186 518 -70 
C 621 -179 742 -365 794 -493 
C 2234 -160 2950 397 3315 1222 
L 5984 1222 
L 5984 1638 
L 3462 1638 
C 3648 2259 3693 3002 3718 3878 
L 3219 3878 
C 3194 2970 3155 2234 2950 1638 
L 454 1638 
z
" transform="scale(0.015625)"/>
       <path id="NotoSansCJKjp-Regular-9645" d="M 2957 4890 
L 2957 4435 
L 5754 4435 
L 5754 4890 
L 2957 4890 
z
M 4966 2080 
C 5267 1440 5562 608 5658 102 
L 6106 262 
C 5997 768 5683 1581 5376 2208 
L 4966 2080 
z
M 3123 2189 
C 2950 1510 2662 826 2310 365 
C 2413 314 2611 179 2694 115 
C 3040 602 3366 1350 3558 2093 
L 3123 2189 
z
M 550 5101 
L 550 -512 
L 1005 -512 
L 1005 4666 
L 1939 4666 
C 1798 4237 1606 3680 1421 3219 
C 1894 2707 2010 2266 2010 1914 
C 2010 1722 1971 1542 1869 1472 
C 1818 1434 1741 1414 1664 1414 
C 1562 1402 1434 1408 1280 1421 
C 1363 1299 1408 1114 1408 998 
C 1562 992 1728 992 1856 1005 
C 1997 1024 2112 1062 2208 1120 
C 2400 1254 2477 1530 2477 1875 
C 2477 2272 2362 2739 1882 3270 
C 2106 3782 2349 4410 2541 4934 
L 2202 5120 
L 2125 5101 
L 550 5101 
z
M 2682 3360 
L 2682 2906 
L 4045 2906 
L 4045 102 
C 4045 19 4019 -6 3930 -6 
C 3840 -13 3539 -13 3206 -6 
C 3277 -154 3341 -358 3360 -499 
C 3808 -499 4102 -486 4288 -410 
C 4480 -326 4531 -179 4531 96 
L 4531 2906 
L 6099 2906 
L 6099 3360 
L 2682 3360 
z
" transform="scale(0.015625)"/>
       <path id="NotoSansCJKjp-Regular-63a8" d="M 4275 2458 
L 4275 1581 
L 3238 1581 
L 3238 2458 
L 4275 2458 
z
M 3245 5389 
C 2982 4454 2534 3571 1971 3008 
C 2074 2906 2234 2701 2298 2605 
C 2464 2784 2624 2989 2771 3213 
L 2771 -506 
L 3238 -506 
L 3238 -179 
L 6144 -179 
L 6144 269 
L 4730 269 
L 4730 1165 
L 5882 1165 
L 5882 1581 
L 4730 1581 
L 4730 2458 
L 5882 2458 
L 5882 2874 
L 4730 2874 
L 4730 3738 
L 6035 3738 
L 6035 4166 
L 4755 4166 
C 4915 4493 5082 4890 5222 5242 
L 4723 5363 
C 4627 5011 4448 4538 4282 4166 
L 3296 4166 
C 3462 4518 3597 4896 3712 5274 
L 3245 5389 
z
M 4275 2874 
L 3238 2874 
L 3238 3738 
L 4275 3738 
L 4275 2874 
z
M 4275 1165 
L 4275 269 
L 3238 269 
L 3238 1165 
L 4275 1165 
z
M 1152 5370 
L 1152 4083 
L 282 4083 
L 282 3635 
L 1152 3635 
L 1152 2240 
L 173 1971 
L 288 1504 
L 1152 1766 
L 1152 70 
C 1152 -19 1120 -51 1037 -51 
C 954 -51 691 -51 397 -45 
C 461 -179 525 -384 544 -506 
C 966 -512 1222 -493 1389 -416 
C 1555 -339 1613 -198 1613 77 
L 1613 1914 
L 2291 2125 
L 2234 2554 
L 1613 2374 
L 1613 3635 
L 2234 3635 
L 2234 4083 
L 1613 4083 
L 1613 5370 
L 1152 5370 
z
" transform="scale(0.015625)"/>
       <path id="NotoSansCJKjp-Regular-529b" d="M 2624 5363 
L 2624 4256 
L 2624 3981 
L 531 3981 
L 531 3488 
L 2598 3488 
C 2502 2285 2080 877 339 -160 
C 461 -243 634 -422 710 -538 
C 2573 595 3008 2157 3098 3488 
L 5293 3488 
C 5165 1229 5024 320 4794 102 
C 4717 19 4634 0 4499 0 
C 4339 0 3930 6 3488 45 
C 3584 -96 3642 -307 3654 -448 
C 4051 -467 4461 -480 4678 -461 
C 4928 -435 5075 -390 5229 -198 
C 5517 115 5645 1075 5792 3725 
C 5798 3795 5805 3981 5805 3981 
L 3123 3981 
L 3123 4256 
L 3123 5363 
L 2624 5363 
z
" transform="scale(0.015625)"/>
       <path id="NotoSansCJKjp-Regular-75" d="M 1606 -83 
C 2080 -83 2426 166 2752 544 
L 2771 544 
L 2816 0 
L 3302 0 
L 3302 3475 
L 2720 3475 
L 2720 1011 
C 2387 602 2138 422 1779 422 
C 1318 422 1126 698 1126 1344 
L 1126 3475 
L 538 3475 
L 538 1274 
C 538 384 870 -83 1606 -83 
z
" transform="scale(0.015625)"/>
       <path id="NotoSansCJKjp-Regular-4e" d="M 646 0 
L 1203 0 
L 1203 2464 
C 1203 2957 1158 3456 1133 3930 
L 1158 3930 
L 1664 2963 
L 3373 0 
L 3981 0 
L 3981 4691 
L 3418 4691 
L 3418 2253 
C 3418 1766 3462 1235 3501 768 
L 3469 768 
L 2963 1734 
L 1248 4691 
L 646 4691 
L 646 0 
z
" transform="scale(0.015625)"/>
      </defs>
      <use xlink:href="#NotoSansCJKjp-Regular-5b9e"/>
      <use xlink:href="#NotoSansCJKjp-Regular-9645" transform="translate(99.999985 0)"/>
      <use xlink:href="#NotoSansCJKjp-Regular-63a8" transform="translate(199.999969 0)"/>
      <use xlink:href="#NotoSansCJKjp-Regular-529b" transform="translate(299.999954 0)"/>
      <use xlink:href="#NotoSansCJKjp-Regular-20" transform="translate(399.999939 0)"/>
      <use xlink:href="#NotoSansCJKjp-Regular-75" transform="translate(422.399933 0)"/>
      <use xlink:href="#NotoSansCJKjp-Regular-20" transform="translate(483.09993 0)"/>
      <use xlink:href="#NotoSansCJKjp-Regular-5b" transform="translate(505.499924 0)"/>
      <use xlink:href="#NotoSansCJKjp-Regular-4e" transform="translate(539.299911 0)"/>
      <use xlink:href="#NotoSansCJKjp-Regular-5d" transform="translate(611.599899 0)"/>
     </g>
    </g>
   </g>
   <g id="line2d_67">
    <path d="M 87.152727 301.129685 
L 121.916227 301.129685 
L 122.113747 301.266569 
L 126.854224 308.151608 
L 131.989741 316.021128 
L 137.520298 324.911917 
L 143.840935 335.510812 
L 151.34669 348.556296 
L 162.012764 367.593697 
L 178.011875 396.131308 
L 185.715151 409.388472 
L 192.035787 419.837348 
L 197.763864 428.878668 
L 202.899381 436.576023 
L 207.639858 443.293296 
L 212.182815 449.346012 
L 215.145614 453.075832 
L 215.540653 453.209747 
L 338.595543 453.137787 
L 342.94098 447.851744 
L 347.681457 441.72204 
L 352.619455 434.972825 
L 358.150011 427.02613 
L 364.273128 417.825475 
L 371.383844 406.726398 
L 380.864798 391.477834 
L 402.394466 356.706638 
L 409.702702 345.412237 
L 416.023338 336.051623 
L 421.553895 328.248662 
L 426.689412 321.38125 
L 431.429889 315.404925 
L 435.972847 310.035676 
L 440.120764 305.462504 
L 444.268682 301.223056 
L 444.663722 301.129685 
L 543.226145 301.235971 
L 547.374062 305.326608 
L 551.7195 309.933268 
L 556.262457 315.07549 
L 561.200455 321.010073 
L 566.533491 327.779769 
L 572.459088 335.679717 
L 579.174764 345.024497 
L 587.27308 356.695085 
L 601.099472 377.092779 
L 612.753145 394.118892 
L 620.45642 404.983216 
L 626.777057 413.530175 
L 632.505134 420.912919 
L 637.83817 427.421633 
L 642.776168 433.09384 
L 647.319125 437.981442 
L 651.664562 442.33665 
L 655.81248 446.183683 
L 659.762878 449.551179 
L 663.515756 452.471045 
L 664.700875 453.209747 
L 737.585713 453.191809 
L 741.338591 450.420972 
L 745.288989 447.230203 
L 749.436906 443.592216 
L 753.782344 439.483372 
L 758.325301 434.884747 
L 763.263298 429.564449 
L 768.596335 423.481146 
L 774.324412 416.608318 
L 780.842568 408.434779 
L 788.743364 398.150121 
L 800.397037 382.561764 
L 815.408548 362.540357 
L 823.309344 352.383443 
L 829.8275 344.352192 
L 835.753097 337.401378 
L 841.086134 331.482729 
L 846.024131 326.324692 
L 850.764608 321.693743 
L 855.110045 317.746601 
L 859.257963 314.261651 
L 863.405881 311.067376 
L 867.356278 308.307267 
L 871.109156 305.949311 
L 874.862034 303.856442 
L 877.034753 302.768572 
L 877.232273 302.768572 
L 877.232273 302.768572 
" clip-path="url(#p888b3b36bf)" style="fill: none; stroke: #bd5b28; stroke-width: 2.1; stroke-linecap: square"/>
   </g>
   <g id="line2d_68">
    <path d="M 87.152727 323.941694 
L 91.498165 331.485269 
L 95.843602 338.574797 
L 99.99152 344.925145 
L 104.139437 350.875874 
L 108.287355 356.435549 
L 112.435273 361.613666 
L 116.38567 366.199892 
L 120.336068 370.458874 
L 124.286466 374.400602 
L 128.236864 378.03548 
L 132.187261 381.374252 
L 136.137659 384.427938 
L 140.088057 387.207762 
L 144.038455 389.725101 
L 148.186372 392.098353 
L 152.33429 394.208179 
L 156.482207 396.067891 
L 160.630125 397.690734 
L 164.975562 399.151102 
L 169.321 400.380817 
L 173.863957 401.435716 
L 178.604435 402.302519 
L 183.542432 402.970671 
L 188.677949 403.43255 
L 194.010986 403.683629 
L 199.541543 403.722579 
L 205.467139 403.541883 
L 211.787776 403.12725 
L 218.700972 402.449403 
L 226.404247 401.465282 
L 235.095122 400.126286 
L 245.563676 398.279563 
L 259.785108 395.525971 
L 297.313886 388.160012 
L 311.140278 385.734124 
L 323.781551 383.738409 
L 336.027784 382.028724 
L 348.076497 380.568731 
L 360.32273 379.308592 
L 372.964003 378.234757 
L 386.000315 377.352173 
L 399.826707 376.641426 
L 414.640699 376.104805 
L 431.034849 375.738141 
L 449.601719 375.550855 
L 471.921466 375.556855 
L 502.142009 375.80528 
L 627.962176 377.069344 
L 682.082625 377.244696 
L 762.670739 377.254969 
L 877.232273 377.180573 
L 877.232273 377.180573 
" clip-path="url(#p888b3b36bf)" style="fill: none; stroke: #2563a6; stroke-width: 2.1; stroke-linecap: square"/>
   </g>
   <g id="line2d_69">
    <path d="M 47.64875 301.129685 
L 916.73625 301.129685 
" clip-path="url(#p888b3b36bf)" style="fill: none; stroke-dasharray: 1.5,2.475; stroke-dashoffset: 0; stroke: #65798b; stroke-width: 1.5"/>
   </g>
   <g id="line2d_70">
    <path d="M 47.64875 453.209747 
L 916.73625 453.209747 
" clip-path="url(#p888b3b36bf)" style="fill: none; stroke-dasharray: 1.5,2.475; stroke-dashoffset: 0; stroke: #65798b; stroke-width: 1.5"/>
   </g>
   <g id="patch_7">
    <path d="M 47.64875 460.81375 
L 47.64875 293.525682 
" style="fill: none; stroke: #000000; stroke-width: 0.8; stroke-linejoin: miter; stroke-linecap: square"/>
   </g>
   <g id="patch_8">
    <path d="M 47.64875 460.81375 
L 916.73625 460.81375 
" style="fill: none; stroke: #000000; stroke-width: 0.8; stroke-linejoin: miter; stroke-linecap: square"/>
   </g>
   <g id="legend_2">
    <g id="patch_9">
     <path d="M 834.84125 335.875682 
L 909.03625 335.875682 
Q 911.23625 335.875682 911.23625 333.675682 
L 911.23625 301.225682 
Q 911.23625 299.025682 909.03625 299.025682 
L 834.84125 299.025682 
Q 832.64125 299.025682 832.64125 301.225682 
L 832.64125 333.675682 
Q 832.64125 335.875682 834.84125 335.875682 
z
" style="fill: #ffffff; opacity: 0.8; stroke: #cccccc; stroke-linejoin: miter"/>
    </g>
    <g id="line2d_71">
     <path d="M 837.04125 308.330994 
L 848.04125 308.330994 
L 859.04125 308.330994 
" style="fill: none; stroke: #bd5b28; stroke-width: 2.1; stroke-linecap: square"/>
    </g>
    <g id="text_28">
     <!-- P 控制 -->
     <g transform="translate(867.84125 312.180994) scale(0.11 -0.11)">
      <use xlink:href="#NotoSansCJKjp-Regular-50"/>
      <use xlink:href="#NotoSansCJKjp-Regular-20" transform="translate(63.299988 0)"/>
      <use xlink:href="#NotoSansCJKjp-Regular-63a7" transform="translate(85.699982 0)"/>
      <use xlink:href="#NotoSansCJKjp-Regular-5236" transform="translate(185.699966 0)"/>
     </g>
    </g>
    <g id="line2d_72">
     <path d="M 837.04125 325.105994 
L 848.04125 325.105994 
L 859.04125 325.105994 
" style="fill: none; stroke: #2563a6; stroke-width: 2.1; stroke-linecap: square"/>
    </g>
    <g id="text_29">
     <!-- PD 控制 -->
     <g transform="translate(867.84125 328.955994) scale(0.11 -0.11)">
      <use xlink:href="#NotoSansCJKjp-Regular-50"/>
      <use xlink:href="#NotoSansCJKjp-Regular-44" transform="translate(63.299988 0)"/>
      <use xlink:href="#NotoSansCJKjp-Regular-20" transform="translate(132.099976 0)"/>
      <use xlink:href="#NotoSansCJKjp-Regular-63a7" transform="translate(154.499969 0)"/>
      <use xlink:href="#NotoSansCJKjp-Regular-5236" transform="translate(254.499954 0)"/>
     </g>
    </g>
   </g>
  </g>
  <g id="text_30">
   <!-- 图2  只看位置与同时看位置和速度 -->
   <g style="fill: #16324b" transform="translate(304.163437 23.914687) scale(0.21 -0.21)">
    <defs>
     <path id="NotoSansCJKjp-Regular-56fe" d="M 2400 1786 
C 2912 1677 3565 1453 3923 1274 
L 4122 1600 
C 3763 1766 3117 1978 2605 2080 
L 2400 1786 
z
M 1760 973 
C 2643 864 3750 608 4365 390 
L 4576 749 
C 3955 954 2848 1203 1984 1299 
L 1760 973 
z
M 538 5094 
L 538 -512 
L 998 -512 
L 998 -243 
L 5389 -243 
L 5389 -512 
L 5869 -512 
L 5869 5094 
L 538 5094 
z
M 998 186 
L 998 4659 
L 5389 4659 
L 5389 186 
L 998 186 
z
M 2650 4531 
C 2330 4006 1779 3507 1229 3181 
C 1331 3117 1498 2970 1568 2893 
C 1760 3021 1958 3174 2157 3347 
C 2349 3142 2586 2950 2842 2778 
C 2298 2522 1683 2330 1114 2214 
C 1197 2125 1299 1939 1344 1824 
C 1971 1971 2643 2208 3251 2534 
C 3782 2246 4390 2029 4998 1894 
C 5056 2010 5178 2176 5267 2259 
C 4704 2362 4141 2534 3642 2765 
C 4122 3078 4525 3443 4794 3878 
L 4518 4038 
L 4448 4019 
L 2790 4019 
C 2886 4141 2976 4262 3053 4390 
L 2650 4531 
z
M 2419 3603 
L 2464 3648 
L 4122 3648 
C 3891 3398 3584 3174 3238 2976 
C 2912 3162 2630 3373 2419 3603 
z
" transform="scale(0.015625)"/>
     <path id="NotoSansCJKjp-Regular-53ea" d="M 3776 1011 
C 4410 557 5184 -102 5549 -531 
L 5971 -230 
C 5581 205 4787 838 4160 1267 
L 3776 1011 
z
M 2163 1280 
C 1792 768 1043 186 371 -179 
C 486 -262 659 -416 755 -518 
C 1440 -134 2195 493 2675 1082 
L 2163 1280 
z
M 1062 4941 
L 1062 1491 
L 1542 1491 
L 1542 1722 
L 4973 1722 
L 4973 1523 
L 5472 1523 
L 5472 4941 
L 1062 4941 
z
M 1542 2182 
L 1542 4474 
L 4973 4474 
L 4973 2182 
L 1542 2182 
z
" transform="scale(0.015625)"/>
     <path id="NotoSansCJKjp-Regular-770b" d="M 2125 1370 
L 4915 1370 
L 4915 922 
L 2125 922 
L 2125 1370 
z
M 2125 1709 
L 2125 2144 
L 4915 2144 
L 4915 1709 
L 2125 1709 
z
M 2125 589 
L 4915 589 
L 4915 115 
L 2125 115 
L 2125 589 
z
M 5286 5325 
C 4262 5120 2317 5024 755 5011 
C 800 4909 845 4749 851 4640 
C 1408 4640 2010 4653 2611 4678 
C 2566 4531 2522 4384 2470 4237 
L 845 4237 
L 845 3853 
L 2330 3853 
C 2266 3693 2195 3533 2112 3373 
L 378 3373 
L 378 2976 
L 1894 2976 
C 1491 2298 941 1709 211 1293 
C 314 1197 454 1024 518 915 
C 960 1178 1338 1498 1664 1862 
L 1664 -525 
L 2125 -525 
L 2125 -269 
L 4915 -269 
L 4915 -525 
L 5395 -525 
L 5395 2528 
L 2176 2528 
C 2272 2675 2362 2822 2445 2976 
L 6022 2976 
L 6022 3373 
L 2643 3373 
C 2720 3533 2790 3693 2854 3853 
L 5651 3853 
L 5651 4237 
L 2995 4237 
L 3142 4704 
C 4064 4762 4947 4851 5594 4979 
L 5286 5325 
z
" transform="scale(0.015625)"/>
     <path id="NotoSansCJKjp-Regular-4e0e" d="M 1939 5389 
C 1773 4429 1485 3098 1267 2317 
L 1760 2272 
L 1843 2605 
L 4525 2605 
C 4486 2246 4454 1939 4416 1664 
L 346 1664 
L 346 1210 
L 4346 1210 
C 4230 518 4102 160 3949 26 
C 3866 -45 3776 -51 3616 -51 
C 3437 -51 2957 -51 2470 0 
C 2560 -134 2624 -339 2637 -480 
C 3098 -512 3558 -518 3789 -506 
C 4045 -486 4198 -442 4365 -282 
C 4570 -83 4710 346 4845 1210 
L 6074 1210 
L 6074 1664 
L 4902 1664 
C 4947 1997 4986 2374 5030 2816 
C 5037 2886 5050 3053 5050 3053 
L 1952 3053 
L 2163 4000 
L 5402 4000 
L 5402 4461 
L 2259 4461 
L 2432 5338 
L 1939 5389 
z
" transform="scale(0.015625)"/>
     <path id="NotoSansCJKjp-Regular-540c" d="M 1587 3917 
L 1587 3501 
L 4838 3501 
L 4838 3917 
L 1587 3917 
z
M 2355 2419 
L 4045 2419 
L 4045 1203 
L 2355 1203 
L 2355 2419 
z
M 1914 2829 
L 1914 326 
L 2355 326 
L 2355 794 
L 4493 794 
L 4493 2829 
L 1914 2829 
z
M 563 5043 
L 563 -525 
L 1030 -525 
L 1030 4589 
L 5376 4589 
L 5376 102 
C 5376 -13 5338 -51 5222 -58 
C 5114 -58 4742 -64 4339 -51 
C 4416 -173 4486 -390 4512 -518 
C 5062 -518 5389 -506 5581 -429 
C 5779 -352 5850 -198 5850 96 
L 5850 5043 
L 563 5043 
z
" transform="scale(0.015625)"/>
     <path id="NotoSansCJKjp-Regular-548c" d="M 3398 4781 
L 3398 -224 
L 3866 -224 
L 3866 301 
L 5293 301 
L 5293 -179 
L 5779 -179 
L 5779 4781 
L 3398 4781 
z
M 3866 762 
L 3866 4320 
L 5293 4320 
L 5293 762 
L 3866 762 
z
M 2810 5318 
C 2246 5088 1235 4896 384 4781 
C 435 4672 499 4506 518 4397 
C 858 4435 1222 4486 1581 4550 
L 1581 3482 
L 320 3482 
L 320 3034 
L 1459 3034 
C 1165 2227 653 1350 166 858 
C 250 736 371 550 429 410 
C 845 851 1267 1587 1581 2342 
L 1581 -499 
L 2054 -499 
L 2054 2323 
C 2330 1958 2688 1472 2835 1229 
L 3130 1626 
C 2976 1824 2291 2630 2054 2874 
L 2054 3034 
L 3174 3034 
L 3174 3482 
L 2054 3482 
L 2054 4646 
C 2458 4730 2829 4826 3130 4941 
L 2810 5318 
z
" transform="scale(0.015625)"/>
     <path id="NotoSansCJKjp-Regular-901f" d="M 384 4934 
C 794 4646 1274 4218 1478 3904 
L 1862 4224 
C 1632 4531 1152 4947 730 5222 
L 384 4934 
z
M 1677 2848 
L 314 2848 
L 314 2400 
L 1210 2400 
L 1210 768 
C 890 499 518 230 230 32 
L 480 -461 
C 826 -173 1152 102 1459 378 
C 1869 -128 2445 -358 3283 -390 
C 3994 -416 5318 -403 6016 -371 
C 6035 -224 6118 6 6176 115 
C 5414 64 3981 45 3283 77 
C 2541 102 1978 326 1677 794 
L 1677 2848 
z
M 2752 3379 
L 3757 3379 
L 3757 2560 
L 2752 2560 
L 2752 3379 
z
M 4224 3379 
L 5286 3379 
L 5286 2560 
L 4224 2560 
L 4224 3379 
z
M 3757 5370 
L 3757 4710 
L 2035 4710 
L 2035 4294 
L 3757 4294 
L 3757 3763 
L 2304 3763 
L 2304 2176 
L 3501 2176 
C 3130 1638 2502 1120 1920 870 
C 2022 781 2163 621 2227 506 
C 2778 787 3360 1306 3757 1875 
L 3757 314 
L 4224 314 
L 4224 1850 
C 4640 1318 5235 800 5754 525 
C 5824 640 5971 806 6080 896 
C 5510 1146 4845 1658 4442 2176 
L 5754 2176 
L 5754 3763 
L 4224 3763 
L 4224 4294 
L 6048 4294 
L 6048 4710 
L 4224 4710 
L 4224 5370 
L 3757 5370 
z
" transform="scale(0.015625)"/>
     <path id="NotoSansCJKjp-Regular-5ea6" d="M 2470 4141 
L 2470 3584 
L 1440 3584 
L 1440 3187 
L 2470 3187 
L 2470 2125 
L 4960 2125 
L 4960 3187 
L 5997 3187 
L 5997 3584 
L 4960 3584 
L 4960 4141 
L 4486 4141 
L 4486 3584 
L 2931 3584 
L 2931 4141 
L 2470 4141 
z
M 4486 3187 
L 4486 2509 
L 2931 2509 
L 2931 3187 
L 4486 3187 
z
M 4851 1318 
C 4582 986 4211 717 3770 506 
C 3334 723 2970 992 2720 1318 
L 4851 1318 
z
M 1530 1715 
L 1530 1318 
L 2502 1318 
L 2259 1222 
C 2515 858 2861 550 3270 301 
C 2662 90 1978 -38 1280 -109 
C 1357 -211 1453 -397 1485 -512 
C 2291 -416 3072 -243 3757 45 
C 4365 -237 5088 -422 5869 -525 
C 5933 -403 6048 -211 6150 -109 
C 5466 -38 4819 96 4269 294 
C 4813 608 5261 1024 5549 1574 
L 5248 1734 
L 5165 1715 
L 1530 1715 
z
M 774 4742 
L 774 2893 
C 774 1965 730 659 198 -256 
C 314 -307 512 -435 595 -518 
C 1152 448 1235 1901 1235 2893 
L 1235 4307 
L 6035 4307 
L 6035 4742 
L 3635 4742 
L 3635 5376 
L 3142 5376 
L 3142 4742 
L 774 4742 
z
" transform="scale(0.015625)"/>
    </defs>
    <use xlink:href="#NotoSansCJKjp-Regular-56fe"/>
    <use xlink:href="#NotoSansCJKjp-Regular-32" transform="translate(99.999985 0)"/>
    <use xlink:href="#NotoSansCJKjp-Regular-20" transform="translate(155.499969 0)"/>
    <use xlink:href="#NotoSansCJKjp-Regular-20" transform="translate(177.899963 0)"/>
    <use xlink:href="#NotoSansCJKjp-Regular-53ea" transform="translate(200.299957 0)"/>
    <use xlink:href="#NotoSansCJKjp-Regular-770b" transform="translate(300.299942 0)"/>
    <use xlink:href="#NotoSansCJKjp-Regular-4f4d" transform="translate(400.299927 0)"/>
    <use xlink:href="#NotoSansCJKjp-Regular-7f6e" transform="translate(500.299911 0)"/>
    <use xlink:href="#NotoSansCJKjp-Regular-4e0e" transform="translate(600.299896 0)"/>
    <use xlink:href="#NotoSansCJKjp-Regular-540c" transform="translate(700.299881 0)"/>
    <use xlink:href="#NotoSansCJKjp-Regular-65f6" transform="translate(800.299866 0)"/>
    <use xlink:href="#NotoSansCJKjp-Regular-770b" transform="translate(900.29985 0)"/>
    <use xlink:href="#NotoSansCJKjp-Regular-4f4d" transform="translate(1000.299835 0)"/>
    <use xlink:href="#NotoSansCJKjp-Regular-7f6e" transform="translate(1100.29982 0)"/>
    <use xlink:href="#NotoSansCJKjp-Regular-548c" transform="translate(1200.299805 0)"/>
    <use xlink:href="#NotoSansCJKjp-Regular-901f" transform="translate(1300.299789 0)"/>
    <use xlink:href="#NotoSansCJKjp-Regular-5ea6" transform="translate(1400.299774 0)"/>
   </g>
  </g>
  <g id="text_31">
   <!-- 自建仿真：m = 2 kg，b = 0.4 N·s/m，Kp = 20 N/m；PD 的 Kd = 8 N·s/m；积分与命令更新步长 1 ms -->
   <g style="fill: #65798b" transform="translate(87.29625 528.3) scale(0.1 -0.1)">
    <defs>
     <path id="NotoSansCJKjp-Regular-81ea" d="M 1530 2630 
L 4954 2630 
L 4954 1690 
L 1530 1690 
L 1530 2630 
z
M 1530 3085 
L 1530 4038 
L 4954 4038 
L 4954 3085 
L 1530 3085 
z
M 1530 1242 
L 4954 1242 
L 4954 294 
L 1530 294 
L 1530 1242 
z
M 2912 5389 
C 2861 5133 2758 4781 2662 4499 
L 1043 4499 
L 1043 -518 
L 1530 -518 
L 1530 -160 
L 4954 -160 
L 4954 -486 
L 5459 -486 
L 5459 4499 
L 3149 4499 
C 3258 4742 3366 5037 3469 5312 
L 2912 5389 
z
" transform="scale(0.015625)"/>
     <path id="NotoSansCJKjp-Regular-5efa" d="M 2470 4864 
L 2470 4480 
L 3776 4480 
L 3776 4026 
L 2010 4026 
L 2010 3635 
L 3776 3635 
L 3776 3162 
L 2426 3162 
L 2426 2771 
L 3776 2771 
L 3776 2298 
L 2381 2298 
L 2381 1926 
L 3776 1926 
L 3776 1421 
L 2099 1421 
L 2099 1024 
L 3776 1024 
L 3776 346 
L 4243 346 
L 4243 1024 
L 6010 1024 
L 6010 1421 
L 4243 1421 
L 4243 1926 
L 5728 1926 
L 5728 2298 
L 4243 2298 
L 4243 2771 
L 5664 2771 
L 5664 3635 
L 6150 3635 
L 6150 4026 
L 5664 4026 
L 5664 4864 
L 4243 4864 
L 4243 5325 
L 3776 5325 
L 3776 4864 
L 2470 4864 
z
M 4243 3635 
L 5197 3635 
L 5197 3162 
L 4243 3162 
L 4243 3635 
z
M 4243 4026 
L 4243 4480 
L 5197 4480 
L 5197 4026 
L 4243 4026 
z
M 870 2202 
L 486 2061 
C 646 1536 851 1120 1094 800 
C 858 371 570 45 218 -192 
C 320 -256 506 -429 576 -525 
C 902 -288 1184 26 1421 435 
C 2099 -186 3021 -339 4192 -339 
L 5997 -339 
C 6022 -205 6112 19 6189 128 
C 5850 115 4467 115 4198 115 
C 3136 122 2253 256 1632 851 
C 1888 1440 2067 2176 2163 3091 
L 1882 3155 
L 1798 3149 
L 1133 3149 
C 1434 3757 1741 4410 1946 4896 
L 1619 4992 
L 1542 4973 
L 262 4973 
L 262 4538 
L 1312 4538 
C 1050 3974 672 3187 346 2586 
L 787 2464 
L 915 2714 
L 1664 2714 
C 1587 2144 1466 1658 1299 1242 
C 1126 1504 986 1818 870 2202 
z
" transform="scale(0.015625)"/>
     <path id="NotoSansCJKjp-Regular-4eff" d="M 2099 4269 
L 2099 3808 
L 3386 3808 
C 3328 2362 3206 685 1856 -166 
C 1984 -250 2131 -403 2208 -518 
C 3206 141 3603 1216 3770 2349 
L 5248 2349 
C 5158 819 5056 211 4909 58 
C 4845 -13 4781 -19 4659 -19 
C 4538 -19 4224 -19 3898 13 
C 3981 -115 4032 -320 4045 -461 
C 4371 -480 4685 -480 4864 -467 
C 5062 -448 5190 -403 5318 -256 
C 5530 -13 5632 678 5734 2566 
C 5747 2637 5747 2790 5747 2790 
L 3827 2790 
C 3859 3130 3878 3475 3898 3808 
L 6144 3808 
L 6144 4269 
L 4403 4269 
L 4403 5376 
L 3923 5376 
L 3923 4269 
L 2099 4269 
z
M 1888 5338 
C 1485 4326 826 3347 128 2720 
C 218 2605 371 2355 422 2240 
C 685 2490 947 2790 1190 3123 
L 1190 -499 
L 1664 -499 
L 1664 3827 
C 1926 4262 2163 4723 2355 5190 
L 1888 5338 
z
" transform="scale(0.015625)"/>
     <path id="NotoSansCJKjp-Regular-771f" d="M 3795 269 
C 4512 13 5242 -301 5683 -525 
L 6086 -198 
C 5606 26 4819 333 4109 576 
L 3795 269 
z
M 365 1094 
L 365 685 
L 6048 685 
L 6048 1094 
L 365 1094 
z
M 1792 2957 
L 4710 2957 
L 4710 2528 
L 1792 2528 
L 1792 2957 
z
M 1792 2221 
L 4710 2221 
L 4710 1786 
L 1792 1786 
L 1792 2221 
z
M 1792 3680 
L 4710 3680 
L 4710 3264 
L 1792 3264 
L 1792 3680 
z
M 2214 563 
C 1805 294 1005 -13 365 -186 
C 467 -275 614 -429 691 -525 
C 1325 -346 2131 -26 2637 288 
L 2214 563 
z
M 1325 4006 
L 1325 1472 
L 5197 1472 
L 5197 4006 
L 3437 4006 
L 3437 4429 
L 5888 4429 
L 5888 4838 
L 3437 4838 
L 3437 5382 
L 2938 5382 
L 2938 4838 
L 544 4838 
L 544 4429 
L 2938 4429 
L 2938 4006 
L 1325 4006 
z
" transform="scale(0.015625)"/>
     <path id="NotoSansCJKjp-Regular-ff1a" d="M 3200 3482 
C 3456 3482 3686 3667 3686 3962 
C 3686 4256 3456 4442 3200 4442 
C 2944 4442 2714 4256 2714 3962 
C 2714 3667 2944 3482 3200 3482 
z
M 3200 346 
C 3456 346 3686 538 3686 826 
C 3686 1120 3456 1312 3200 1312 
C 2944 1312 2714 1120 2714 826 
C 2714 538 2944 346 3200 346 
z
" transform="scale(0.015625)"/>
     <path id="NotoSansCJKjp-Regular-3d" d="M 243 2912 
L 3315 2912 
L 3315 3347 
L 243 3347 
L 243 2912 
z
M 243 1376 
L 3315 1376 
L 3315 1811 
L 243 1811 
L 243 1376 
z
" transform="scale(0.015625)"/>
     <path id="NotoSansCJKjp-Regular-6b" d="M 589 0 
L 1165 0 
L 1165 915 
L 1818 1677 
L 2835 0 
L 3469 0 
L 2157 2074 
L 3315 3475 
L 2662 3475 
L 1190 1645 
L 1165 1645 
L 1165 5094 
L 589 5094 
L 589 0 
z
" transform="scale(0.015625)"/>
     <path id="NotoSansCJKjp-Regular-67" d="M 1760 -1600 
C 2835 -1600 3520 -1043 3520 -397 
C 3520 179 3110 429 2310 429 
L 1626 429 
C 1158 429 1018 589 1018 806 
C 1018 998 1114 1114 1242 1222 
C 1395 1146 1587 1101 1754 1101 
C 2470 1101 3027 1568 3027 2310 
C 3027 2611 2912 2867 2746 3027 
L 3456 3027 
L 3456 3475 
L 2246 3475 
C 2125 3526 1952 3565 1754 3565 
C 1056 3565 454 3085 454 2323 
C 454 1907 678 1568 909 1389 
L 909 1363 
C 723 1235 525 1005 525 717 
C 525 442 659 256 838 147 
L 838 115 
C 512 -83 326 -371 326 -672 
C 326 -1267 915 -1600 1760 -1600 
z
M 1754 1498 
C 1357 1498 1018 1818 1018 2323 
C 1018 2835 1350 3136 1754 3136 
C 2170 3136 2496 2835 2496 2323 
C 2496 1818 2157 1498 1754 1498 
z
M 1843 -1197 
C 1210 -1197 838 -960 838 -589 
C 838 -390 941 -179 1190 0 
C 1344 -38 1510 -51 1638 -51 
L 2240 -51 
C 2701 -51 2944 -166 2944 -493 
C 2944 -851 2515 -1197 1843 -1197 
z
" transform="scale(0.015625)"/>
     <path id="NotoSansCJKjp-Regular-ff0c" d="M 1005 -685 
C 1677 -448 2112 77 2112 768 
C 2112 1216 1920 1504 1568 1504 
C 1306 1504 1082 1344 1082 1043 
C 1082 742 1299 589 1562 589 
L 1670 602 
C 1638 160 1357 -141 864 -346 
L 1005 -685 
z
" transform="scale(0.015625)"/>
     <path id="NotoSansCJKjp-Regular-62" d="M 2118 -83 
C 2912 -83 3629 602 3629 1792 
C 3629 2867 3142 3565 2246 3565 
C 1856 3565 1472 3347 1152 3078 
L 1178 3699 
L 1178 5094 
L 589 5094 
L 589 0 
L 1056 0 
L 1107 358 
L 1133 358 
C 1434 83 1798 -83 2118 -83 
z
M 2022 410 
C 1792 410 1478 499 1178 768 
L 1178 2598 
C 1504 2906 1811 3072 2099 3072 
C 2765 3072 3021 2560 3021 1786 
C 3021 928 2598 410 2022 410 
z
" transform="scale(0.015625)"/>
     <path id="NotoSansCJKjp-Regular-b7" d="M 1766 1875 
C 1997 1875 2195 2067 2195 2323 
C 2195 2592 1997 2778 1766 2778 
C 1536 2778 1350 2592 1350 2323 
C 1350 2067 1536 1875 1766 1875 
z
" transform="scale(0.015625)"/>
     <path id="NotoSansCJKjp-Regular-2f" d="M 70 -1146 
L 499 -1146 
L 2413 5082 
L 1990 5082 
L 70 -1146 
z
" transform="scale(0.015625)"/>
     <path id="NotoSansCJKjp-Regular-4b" d="M 646 0 
L 1235 0 
L 1235 1485 
L 2042 2445 
L 3450 0 
L 4109 0 
L 2413 2912 
L 3885 4691 
L 3213 4691 
L 1248 2336 
L 1235 2336 
L 1235 4691 
L 646 4691 
L 646 0 
z
" transform="scale(0.015625)"/>
     <path id="NotoSansCJKjp-Regular-ff1b" d="M 3200 3482 
C 3456 3482 3686 3667 3686 3962 
C 3686 4256 3456 4442 3200 4442 
C 2944 4442 2714 4256 2714 3962 
C 2714 3667 2944 3482 3200 3482 
z
M 2682 -659 
C 3366 -397 3789 141 3789 883 
C 3789 1363 3590 1664 3238 1664 
C 2982 1664 2752 1504 2752 1203 
C 2752 896 2970 742 3232 742 
L 3347 755 
C 3328 256 3053 -83 2534 -320 
L 2682 -659 
z
" transform="scale(0.015625)"/>
     <path id="NotoSansCJKjp-Regular-7684" d="M 3533 2707 
C 3885 2240 4320 1600 4512 1210 
L 4922 1466 
C 4710 1843 4269 2464 3904 2918 
L 3533 2707 
z
M 1536 5389 
C 1485 5082 1376 4659 1274 4346 
L 557 4346 
L 557 -346 
L 998 -346 
L 998 160 
L 2784 160 
L 2784 4346 
L 1715 4346 
C 1824 4621 1946 4979 2054 5299 
L 1536 5389 
z
M 998 3917 
L 2342 3917 
L 2342 2566 
L 998 2566 
L 998 3917 
z
M 998 595 
L 998 2144 
L 2342 2144 
L 2342 595 
L 998 595 
z
M 3827 5402 
C 3622 4518 3277 3635 2835 3066 
C 2950 3002 3149 2867 3238 2790 
C 3456 3098 3661 3488 3840 3923 
L 5478 3923 
C 5402 1357 5299 371 5094 154 
C 5018 64 4947 45 4819 45 
C 4672 45 4288 51 3866 83 
C 3955 -38 4013 -243 4026 -378 
C 4384 -397 4762 -410 4979 -390 
C 5210 -365 5350 -314 5498 -122 
C 5754 192 5843 1184 5939 4122 
C 5946 4186 5946 4365 5946 4365 
L 4013 4365 
C 4115 4666 4211 4986 4288 5299 
L 3827 5402 
z
" transform="scale(0.015625)"/>
     <path id="NotoSansCJKjp-Regular-64" d="M 1773 -83 
C 2189 -83 2560 141 2829 410 
L 2848 410 
L 2899 0 
L 3379 0 
L 3379 5094 
L 2790 5094 
L 2790 3757 
L 2822 3162 
C 2515 3411 2253 3565 1843 3565 
C 1050 3565 339 2861 339 1734 
C 339 576 902 -83 1773 -83 
z
M 1901 410 
C 1293 410 941 902 941 1741 
C 941 2534 1389 3072 1946 3072 
C 2234 3072 2502 2970 2790 2707 
L 2790 883 
C 2502 563 2221 410 1901 410 
z
" transform="scale(0.015625)"/>
     <path id="NotoSansCJKjp-Regular-79ef" d="M 4864 1312 
C 5197 755 5549 6 5690 -454 
L 6144 -262 
C 5997 192 5632 922 5286 1472 
L 4864 1312 
z
M 3552 1459 
C 3373 806 3046 179 2630 -230 
C 2752 -294 2950 -435 3040 -506 
C 3456 -64 3821 627 4032 1350 
L 3552 1459 
z
M 3558 4461 
L 5382 4461 
L 5382 2547 
L 3558 2547 
L 3558 4461 
z
M 3098 4922 
L 3098 2086 
L 5862 2086 
L 5862 4922 
L 3098 4922 
z
M 2541 5318 
C 1990 5101 1037 4915 224 4800 
C 282 4691 346 4525 365 4422 
C 704 4461 1069 4518 1427 4582 
L 1427 3539 
L 294 3539 
L 294 3091 
L 1357 3091 
C 1088 2355 634 1523 205 1069 
C 288 947 416 749 467 614 
C 806 1011 1152 1658 1427 2310 
L 1427 -518 
L 1888 -518 
L 1888 2458 
C 2131 2112 2445 1638 2566 1408 
L 2854 1811 
C 2720 2003 2086 2758 1888 2970 
L 1888 3091 
L 2899 3091 
L 2899 3539 
L 1888 3539 
L 1888 4672 
C 2234 4749 2554 4838 2816 4934 
L 2541 5318 
z
" transform="scale(0.015625)"/>
     <path id="NotoSansCJKjp-Regular-5206" d="M 2074 5248 
C 1677 4256 966 3373 147 2829 
C 262 2739 474 2554 563 2451 
C 1363 3059 2118 4019 2586 5101 
L 2074 5248 
z
M 4307 5261 
L 3846 5075 
C 4326 4122 5139 3085 5850 2509 
C 5939 2643 6118 2829 6253 2931 
C 5549 3424 4723 4397 4307 5261 
z
M 1197 2957 
L 1197 2490 
L 2509 2490 
C 2368 1402 2010 378 486 -122 
C 595 -224 736 -416 800 -544 
C 2445 51 2854 1216 3027 2490 
L 4685 2490 
C 4608 864 4512 224 4346 58 
C 4282 -6 4205 -26 4077 -26 
C 3923 -26 3533 -19 3110 19 
C 3200 -115 3258 -320 3270 -461 
C 3674 -486 4070 -493 4288 -474 
C 4506 -454 4653 -410 4781 -243 
C 5005 0 5094 736 5190 2726 
C 5197 2790 5197 2957 5197 2957 
L 1197 2957 
z
" transform="scale(0.015625)"/>
     <path id="NotoSansCJKjp-Regular-547d" d="M 3174 4934 
C 3802 4186 4979 3354 5984 2893 
C 6074 3027 6182 3200 6304 3315 
C 5267 3731 4115 4531 3392 5389 
L 2899 5389 
C 2374 4640 1261 3763 122 3238 
C 230 3136 352 2963 416 2848 
C 1530 3386 2618 4224 3174 4934 
z
M 1914 3731 
L 1914 3296 
L 4538 3296 
L 4538 3731 
L 1914 3731 
z
M 864 2720 
L 864 -19 
L 1306 -19 
L 1306 525 
L 2854 525 
L 2854 2720 
L 864 2720 
z
M 1306 2291 
L 2419 2291 
L 2419 954 
L 1306 954 
L 1306 2291 
z
M 3411 2720 
L 3411 -525 
L 3866 -525 
L 3866 2298 
L 5158 2298 
L 5158 723 
C 5158 640 5133 621 5043 621 
C 4947 614 4640 614 4275 627 
C 4339 499 4403 320 4422 186 
C 4902 186 5203 186 5389 262 
C 5574 339 5619 474 5619 717 
L 5619 2720 
L 3411 2720 
z
" transform="scale(0.015625)"/>
     <path id="NotoSansCJKjp-Regular-4ee4" d="M 3174 4902 
C 3770 4109 4896 3181 5882 2624 
C 5965 2765 6086 2931 6202 3046 
C 5203 3533 4070 4448 3392 5376 
L 2906 5376 
C 2406 4557 1325 3565 218 2976 
C 326 2874 467 2701 525 2592 
C 1606 3213 2643 4134 3174 4902 
z
M 1850 3462 
L 1850 3021 
L 4557 3021 
L 4557 3462 
L 1850 3462 
z
M 826 2246 
L 826 1805 
L 2528 1805 
L 2528 -512 
L 3027 -512 
L 3027 1805 
L 4890 1805 
L 4890 486 
C 4890 410 4858 390 4755 384 
C 4659 384 4294 378 3917 390 
C 3987 262 4070 70 4090 -70 
C 4589 -70 4915 -64 5120 13 
C 5318 90 5376 230 5376 480 
L 5376 2246 
L 826 2246 
z
" transform="scale(0.015625)"/>
     <path id="NotoSansCJKjp-Regular-66f4" d="M 1613 1523 
L 1203 1357 
C 1421 986 1690 691 2003 454 
C 1613 230 1062 45 301 -96 
C 403 -205 531 -410 589 -518 
C 1421 -339 2016 -102 2445 179 
C 3328 -288 4506 -435 5997 -493 
C 6022 -333 6112 -128 6202 -19 
C 4768 19 3661 115 2835 486 
C 3168 813 3341 1184 3418 1581 
L 5587 1581 
L 5587 4058 
L 3488 4058 
L 3488 4602 
L 5984 4602 
L 5984 5037 
L 416 5037 
L 416 4602 
L 2989 4602 
L 2989 4058 
L 998 4058 
L 998 1581 
L 2912 1581 
C 2835 1274 2688 986 2394 730 
C 2086 934 1824 1190 1613 1523 
z
M 1459 2630 
L 2989 2630 
L 2989 2374 
C 2989 2240 2989 2106 2976 1978 
L 1459 1978 
L 1459 2630 
z
M 3475 1978 
C 3482 2106 3488 2234 3488 2368 
L 3488 2630 
L 5107 2630 
L 5107 1978 
L 3475 1978 
z
M 1459 3654 
L 2989 3654 
L 2989 3014 
L 1459 3014 
L 1459 3654 
z
M 3488 3654 
L 5107 3654 
L 5107 3014 
L 3488 3014 
L 3488 3654 
z
" transform="scale(0.015625)"/>
     <path id="NotoSansCJKjp-Regular-65b0" d="M 774 4179 
C 902 3891 1005 3501 1024 3251 
L 1434 3360 
C 1402 3610 1293 3987 1158 4269 
L 774 4179 
z
M 2419 4282 
C 2349 4013 2208 3610 2093 3360 
L 2483 3264 
C 2598 3501 2733 3859 2854 4186 
L 2419 4282 
z
M 5670 5306 
C 5254 5094 4538 4890 3872 4749 
L 3526 4851 
L 3526 2611 
C 3526 1709 3443 602 2624 -211 
C 2733 -275 2906 -435 2970 -538 
C 3866 352 3987 1645 3987 2605 
L 3987 2765 
L 4954 2765 
L 4954 -480 
L 5414 -480 
L 5414 2765 
L 6144 2765 
L 6144 3213 
L 3987 3213 
L 3987 4365 
C 4704 4506 5510 4704 6061 4954 
L 5670 5306 
z
M 1581 5350 
L 1581 4704 
L 390 4704 
L 390 4301 
L 3219 4301 
L 3219 4704 
L 2048 4704 
L 2048 5350 
L 1581 5350 
z
M 301 3245 
L 301 2835 
L 1581 2835 
L 1581 2170 
L 320 2170 
L 320 1747 
L 1472 1747 
C 1152 1184 640 595 179 301 
C 282 224 422 64 506 -45 
C 870 243 1267 698 1581 1197 
L 1581 -499 
L 2048 -499 
L 2048 1139 
C 2317 896 2637 576 2778 416 
L 3066 774 
C 2912 909 2291 1421 2048 1594 
L 2048 1747 
L 3245 1747 
L 3245 2170 
L 2048 2170 
L 2048 2835 
L 3296 2835 
L 3296 3245 
L 301 3245 
z
" transform="scale(0.015625)"/>
     <path id="NotoSansCJKjp-Regular-6b65" d="M 1683 2758 
C 1370 2278 845 1811 333 1504 
C 454 1427 659 1267 749 1178 
C 1242 1523 1811 2061 2176 2598 
L 1683 2758 
z
M 4915 2579 
C 4358 966 3117 211 813 -70 
C 909 -192 1005 -384 1056 -525 
C 3456 -173 4774 659 5389 2419 
L 4915 2579 
z
M 1306 4877 
L 1306 3437 
L 346 3437 
L 346 2982 
L 2963 2982 
L 2963 1504 
C 2963 1427 2944 1408 2854 1408 
C 2758 1402 2438 1402 2106 1408 
C 2163 1286 2234 1107 2259 979 
C 2707 979 3014 979 3200 1050 
C 3392 1120 3450 1242 3450 1498 
L 3450 2982 
L 6061 2982 
L 6061 3437 
L 3456 3437 
L 3456 4166 
L 5414 4166 
L 5414 4621 
L 3456 4621 
L 3456 5376 
L 2963 5376 
L 2963 3437 
L 1786 3437 
L 1786 4877 
L 1306 4877 
z
" transform="scale(0.015625)"/>
     <path id="NotoSansCJKjp-Regular-957f" d="M 4922 5235 
C 4365 4570 3430 3962 2528 3590 
C 2650 3501 2842 3309 2931 3200 
C 3795 3629 4768 4294 5402 5030 
L 4922 5235 
z
M 358 2874 
L 358 2394 
L 1587 2394 
L 1587 352 
C 1587 96 1440 0 1325 -45 
C 1402 -147 1491 -358 1523 -474 
C 1677 -378 1920 -301 3674 173 
C 3648 275 3629 480 3629 621 
L 2086 243 
L 2086 2394 
L 3091 2394 
C 3610 1069 4518 122 5850 -326 
C 5920 -179 6074 19 6189 128 
C 4960 480 4064 1293 3590 2394 
L 6042 2394 
L 6042 2874 
L 2086 2874 
L 2086 5344 
L 1587 5344 
L 1587 2874 
L 358 2874 
z
" transform="scale(0.015625)"/>
    </defs>
    <use xlink:href="#NotoSansCJKjp-Regular-81ea"/>
    <use xlink:href="#NotoSansCJKjp-Regular-5efa" transform="translate(99.999985 0)"/>
    <use xlink:href="#NotoSansCJKjp-Regular-4eff" transform="translate(199.999969 0)"/>
    <use xlink:href="#NotoSansCJKjp-Regular-771f" transform="translate(299.999954 0)"/>
    <use xlink:href="#NotoSansCJKjp-Regular-ff1a" transform="translate(399.999939 0)"/>
    <use xlink:href="#NotoSansCJKjp-Regular-6d" transform="translate(499.999924 0)"/>
    <use xlink:href="#NotoSansCJKjp-Regular-20" transform="translate(592.599915 0)"/>
    <use xlink:href="#NotoSansCJKjp-Regular-3d" transform="translate(614.999908 0)"/>
    <use xlink:href="#NotoSansCJKjp-Regular-20" transform="translate(670.499893 0)"/>
    <use xlink:href="#NotoSansCJKjp-Regular-32" transform="translate(692.899887 0)"/>
    <use xlink:href="#NotoSansCJKjp-Regular-20" transform="translate(748.399872 0)"/>
    <use xlink:href="#NotoSansCJKjp-Regular-6b" transform="translate(770.799866 0)"/>
    <use xlink:href="#NotoSansCJKjp-Regular-67" transform="translate(825.999863 0)"/>
    <use xlink:href="#NotoSansCJKjp-Regular-ff0c" transform="translate(882.399857 0)"/>
    <use xlink:href="#NotoSansCJKjp-Regular-62" transform="translate(982.399841 0)"/>
    <use xlink:href="#NotoSansCJKjp-Regular-20" transform="translate(1044.199829 0)"/>
    <use xlink:href="#NotoSansCJKjp-Regular-3d" transform="translate(1066.599823 0)"/>
    <use xlink:href="#NotoSansCJKjp-Regular-20" transform="translate(1122.099808 0)"/>
    <use xlink:href="#NotoSansCJKjp-Regular-30" transform="translate(1144.499802 0)"/>
    <use xlink:href="#NotoSansCJKjp-Regular-2e" transform="translate(1199.999786 0)"/>
    <use xlink:href="#NotoSansCJKjp-Regular-34" transform="translate(1227.799774 0)"/>
    <use xlink:href="#NotoSansCJKjp-Regular-20" transform="translate(1283.299759 0)"/>
    <use xlink:href="#NotoSansCJKjp-Regular-4e" transform="translate(1305.699753 0)"/>
    <use xlink:href="#NotoSansCJKjp-Regular-b7" transform="translate(1377.999741 0)"/>
    <use xlink:href="#NotoSansCJKjp-Regular-73" transform="translate(1434.099731 0)"/>
    <use xlink:href="#NotoSansCJKjp-Regular-2f" transform="translate(1480.899719 0)"/>
    <use xlink:href="#NotoSansCJKjp-Regular-6d" transform="translate(1520.099716 0)"/>
    <use xlink:href="#NotoSansCJKjp-Regular-ff0c" transform="translate(1612.699707 0)"/>
    <use xlink:href="#NotoSansCJKjp-Regular-4b" transform="translate(1712.699692 0)"/>
    <use xlink:href="#NotoSansCJKjp-Regular-70" transform="translate(1777.299683 0)"/>
    <use xlink:href="#NotoSansCJKjp-Regular-20" transform="translate(1839.299667 0)"/>
    <use xlink:href="#NotoSansCJKjp-Regular-3d" transform="translate(1861.699661 0)"/>
    <use xlink:href="#NotoSansCJKjp-Regular-20" transform="translate(1917.199646 0)"/>
    <use xlink:href="#NotoSansCJKjp-Regular-32" transform="translate(1939.59964 0)"/>
    <use xlink:href="#NotoSansCJKjp-Regular-30" transform="translate(1995.099625 0)"/>
    <use xlink:href="#NotoSansCJKjp-Regular-20" transform="translate(2050.599609 0)"/>
    <use xlink:href="#NotoSansCJKjp-Regular-4e" transform="translate(2072.999603 0)"/>
    <use xlink:href="#NotoSansCJKjp-Regular-2f" transform="translate(2145.299591 0)"/>
    <use xlink:href="#NotoSansCJKjp-Regular-6d" transform="translate(2184.499588 0)"/>
    <use xlink:href="#NotoSansCJKjp-Regular-ff1b" transform="translate(2277.099579 0)"/>
    <use xlink:href="#NotoSansCJKjp-Regular-50" transform="translate(2377.099564 0)"/>
    <use xlink:href="#NotoSansCJKjp-Regular-44" transform="translate(2440.399551 0)"/>
    <use xlink:href="#NotoSansCJKjp-Regular-20" transform="translate(2509.199539 0)"/>
    <use xlink:href="#NotoSansCJKjp-Regular-7684" transform="translate(2531.599533 0)"/>
    <use xlink:href="#NotoSansCJKjp-Regular-20" transform="translate(2631.599518 0)"/>
    <use xlink:href="#NotoSansCJKjp-Regular-4b" transform="translate(2653.999512 0)"/>
    <use xlink:href="#NotoSansCJKjp-Regular-64" transform="translate(2718.599503 0)"/>
    <use xlink:href="#NotoSansCJKjp-Regular-20" transform="translate(2780.599487 0)"/>
    <use xlink:href="#NotoSansCJKjp-Regular-3d" transform="translate(2802.999481 0)"/>
    <use xlink:href="#NotoSansCJKjp-Regular-20" transform="translate(2858.499466 0)"/>
    <use xlink:href="#NotoSansCJKjp-Regular-38" transform="translate(2880.89946 0)"/>
    <use xlink:href="#NotoSansCJKjp-Regular-20" transform="translate(2936.399445 0)"/>
    <use xlink:href="#NotoSansCJKjp-Regular-4e" transform="translate(2958.799438 0)"/>
    <use xlink:href="#NotoSansCJKjp-Regular-b7" transform="translate(3031.099426 0)"/>
    <use xlink:href="#NotoSansCJKjp-Regular-73" transform="translate(3087.199417 0)"/>
    <use xlink:href="#NotoSansCJKjp-Regular-2f" transform="translate(3133.999405 0)"/>
    <use xlink:href="#NotoSansCJKjp-Regular-6d" transform="translate(3173.199402 0)"/>
    <use xlink:href="#NotoSansCJKjp-Regular-ff1b" transform="translate(3265.799393 0)"/>
    <use xlink:href="#NotoSansCJKjp-Regular-79ef" transform="translate(3365.799377 0)"/>
    <use xlink:href="#NotoSansCJKjp-Regular-5206" transform="translate(3465.799362 0)"/>
    <use xlink:href="#NotoSansCJKjp-Regular-4e0e" transform="translate(3565.799347 0)"/>
    <use xlink:href="#NotoSansCJKjp-Regular-547d" transform="translate(3665.799332 0)"/>
    <use xlink:href="#NotoSansCJKjp-Regular-4ee4" transform="translate(3765.799316 0)"/>
    <use xlink:href="#NotoSansCJKjp-Regular-66f4" transform="translate(3865.799301 0)"/>
    <use xlink:href="#NotoSansCJKjp-Regular-65b0" transform="translate(3965.799286 0)"/>
    <use xlink:href="#NotoSansCJKjp-Regular-6b65" transform="translate(4065.799271 0)"/>
    <use xlink:href="#NotoSansCJKjp-Regular-957f" transform="translate(4165.799255 0)"/>
    <use xlink:href="#NotoSansCJKjp-Regular-20" transform="translate(4265.79924 0)"/>
    <use xlink:href="#NotoSansCJKjp-Regular-31" transform="translate(4288.199234 0)"/>
    <use xlink:href="#NotoSansCJKjp-Regular-20" transform="translate(4343.699219 0)"/>
    <use xlink:href="#NotoSansCJKjp-Regular-6d" transform="translate(4366.099213 0)"/>
    <use xlink:href="#NotoSansCJKjp-Regular-73" transform="translate(4458.699203 0)"/>
   </g>
  </g>
 </g>
 <defs>
  <clipPath id="p53d4ace78c">
   <rect x="47.64875" y="76.32" width="869.0875" height="200.745682"/>
  </clipPath>
  <clipPath id="p888b3b36bf">
   <rect x="47.64875" y="293.525682" width="869.0875" height="167.288068"/>
  </clipPath>
 </defs>
</svg>
